<?xml version="1.0" encoding="UTF-8"?>
<svg id="Ebene_2" data-name="Ebene 2" xmlns="http://www.w3.org/2000/svg" viewBox="0 0 52.38 52.38">
  <defs>
    <style>
      .cls-1 {
        fill: #4d4d4d;
      }
    </style>
  </defs>
  <g id="Layer_2" data-name="Layer 2">
    <g>
      <path class="cls-1" d="M29.02,15.05h-5.65c-.26,0-.51,.1-.7,.27l-7.84,7.21c-.31,.29-.42,.74-.26,1.13,.15,.39,.53,.65,.96,.65h1.68v10.13c0,.57,.46,1.03,1.03,1.03h15.92c.57,0,1.03-.46,1.03-1.03v-10.13h1.68c.42,0,.8-.26,.96-.65,.16-.4,.05-.85-.26-1.13l-7.84-7.21c-.19-.17-.44-.27-.7-.27Zm-5.02,18.37v-3.07h4.38v3.07h-4.38Zm9.12,0h-2.68v-4.1c0-.57-.46-1.03-1.03-1.03h-6.44c-.57,0-1.03,.46-1.03,1.03v4.1h-2.68v-9.11h13.86v9.11Zm-14.96-11.16l5.6-5.15h4.85l5.6,5.15H18.16Z"/>
      <path class="cls-1" d="M49.98,23.79c-.64,0-1.25,.25-1.7,.7-.2,.2-.35,.42-.47,.67h-3.72c-.24-4.17-1.91-7.96-4.52-10.89l2.64-2.64c.25,.09,.53,.14,.81,.14,.64,0,1.24-.25,1.7-.7,.94-.94,.94-2.46,0-3.4-.45-.45-1.06-.7-1.7-.7s-1.25,.25-1.7,.7c-.45,.45-.7,1.06-.7,1.7,0,.28,.05,.55,.14,.81l-2.64,2.64c-2.93-2.61-6.72-4.28-10.89-4.52v-3.72c.81-.39,1.37-1.21,1.37-2.17,0-1.32-1.08-2.4-2.4-2.4s-2.4,1.08-2.4,2.4c0,.96,.56,1.78,1.37,2.17v3.72c-4.17,.24-7.96,1.91-10.89,4.52l-2.64-2.64c.3-.85,.11-1.83-.56-2.5-.45-.45-1.06-.7-1.7-.7s-1.24,.25-1.7,.7c-.94,.94-.94,2.46,0,3.4,.45,.45,1.06,.7,1.7,.7,.28,0,.55-.05,.81-.14l2.64,2.64c-2.62,2.93-4.28,6.72-4.52,10.89h-3.73c-.39-.81-1.21-1.37-2.16-1.37-1.32,0-2.4,1.08-2.4,2.4s1.08,2.4,2.4,2.4c.96,0,1.78-.56,2.16-1.37h3.73c.24,4.17,1.91,7.96,4.52,10.89l-2.64,2.64c-.25-.09-.53-.14-.81-.14-.64,0-1.24,.25-1.7,.7-.46,.45-.7,1.06-.7,1.7s.25,1.25,.7,1.7c.45,.45,1.06,.7,1.7,.7s1.25-.25,1.7-.7c.68-.68,.86-1.66,.56-2.5l2.64-2.64c2.93,2.62,6.72,4.28,10.89,4.52v3.72c-.81,.39-1.37,1.21-1.37,2.17,0,1.32,1.08,2.4,2.4,2.4,.64,0,1.24-.25,1.7-.7,.45-.45,.7-1.06,.7-1.7s-.25-1.25-.7-1.7c-.2-.2-.42-.35-.67-.47v-3.72c4.17-.24,7.96-1.91,10.89-4.52l2.64,2.64c-.3,.85-.11,1.83,.56,2.5,.45,.45,1.06,.7,1.7,.7s1.24-.25,1.7-.7c.45-.45,.7-1.06,.7-1.7s-.25-1.24-.7-1.7-1.06-.7-1.7-.7c-.28,0-.55,.05-.8,.14l-2.64-2.64c2.61-2.93,4.28-6.72,4.52-10.89h3.72c.39,.81,1.21,1.37,2.17,1.37,1.32,0,2.4-1.08,2.4-2.4s-1.08-2.4-2.4-2.4Zm-23.79,18.27c-8.75,0-15.87-7.12-15.87-15.87s7.12-15.87,15.87-15.87,15.87,7.12,15.87,15.87-7.12,15.87-15.87,15.87Z"/>
    </g>
  </g>
</svg>