<?xml version="1.0" encoding="UTF-8"?>
<svg id="Ebene_2" data-name="Ebene 2" xmlns="http://www.w3.org/2000/svg" viewBox="0 0 50.09 46.28">
  <defs>
    <style>
      .cls-1 {
        fill: #4d4d4d;
      }
    </style>
  </defs>
  <g id="Layer_2" data-name="Layer 2">
    <g>
      <path class="cls-1" d="M49.06,38.99h-2.23v-3.19c0-.27-.11-.53-.3-.73l-3.2-3.2V7.93h2.47c.37,0,.71-.2,.89-.52,.19-.32,.18-.72,0-1.04l-3.49-5.88c-.19-.31-.52-.5-.88-.5H7.78c-.36,0-.7,.19-.88,.5L3.4,6.38c-.19,.32-.19,.71,0,1.04,.18,.32,.52,.52,.89,.52h2.47V31.87l-3.2,3.2c-.19,.19-.3,.46-.3,.73v3.19H1.03c-.57,0-1.03,.46-1.03,1.03v5.24c0,.57,.46,1.03,1.03,1.03H49.06c.57,0,1.03-.46,1.03-1.03v-5.24c0-.57-.46-1.03-1.03-1.03ZM8.36,2.06H41.72l2.27,3.82H6.1l2.27-3.82ZM41.27,7.93V31.28H8.82V7.93H41.27ZM5.32,36.23l2.89-2.89H41.88l2.89,2.89v2.76H5.32v-2.76Zm42.71,8H2.06v-3.18H48.03v3.18Z"/>
      <path class="cls-1" d="M13.99,13.78h8.07c.57,0,1.03-.46,1.03-1.03s-.46-1.03-1.03-1.03H13.99c-.57,0-1.03,.46-1.03,1.03s.46,1.03,1.03,1.03Z"/>
      <path class="cls-1" d="M13.99,18.35h8.07c.57,0,1.03-.46,1.03-1.03s-.46-1.03-1.03-1.03H13.99c-.57,0-1.03,.46-1.03,1.03s.46,1.03,1.03,1.03Z"/>
      <path class="cls-1" d="M13.99,22.92h8.07c.57,0,1.03-.46,1.03-1.03s-.46-1.03-1.03-1.03H13.99c-.57,0-1.03,.46-1.03,1.03s.46,1.03,1.03,1.03Z"/>
      <path class="cls-1" d="M13.99,27.5h8.07c.57,0,1.03-.46,1.03-1.03s-.46-1.03-1.03-1.03H13.99c-.57,0-1.03,.46-1.03,1.03s.46,1.03,1.03,1.03Z"/>
      <path class="cls-1" d="M28.02,13.78h8.08c.57,0,1.03-.46,1.03-1.03s-.46-1.03-1.03-1.03h-8.08c-.57,0-1.03,.46-1.03,1.03s.46,1.03,1.03,1.03Z"/>
      <path class="cls-1" d="M28.02,18.35h8.08c.57,0,1.03-.46,1.03-1.03s-.46-1.03-1.03-1.03h-8.08c-.57,0-1.03,.46-1.03,1.03s.46,1.03,1.03,1.03Z"/>
      <path class="cls-1" d="M28.02,22.92h8.08c.57,0,1.03-.46,1.03-1.03s-.46-1.03-1.03-1.03h-8.08c-.57,0-1.03,.46-1.03,1.03s.46,1.03,1.03,1.03Z"/>
      <path class="cls-1" d="M28.02,27.5h8.08c.57,0,1.03-.46,1.03-1.03s-.46-1.03-1.03-1.03h-8.08c-.57,0-1.03,.46-1.03,1.03s.46,1.03,1.03,1.03Z"/>
    </g>
  </g>
</svg>