<?xml version="1.0" encoding="UTF-8"?>
<!DOCTYPE svg PUBLIC "-//W3C//DTD SVG 1.1//EN" "http://www.w3.org/Graphics/SVG/1.1/DTD/svg11.dtd">
<!-- Creator: CorelDRAW 2018 (64 Bit) -->
<svg xmlns="http://www.w3.org/2000/svg" xml:space="preserve" width="22.5794mm" height="22.5779mm" version="1.1" style="shape-rendering:geometricPrecision; text-rendering:geometricPrecision; image-rendering:optimizeQuality; fill-rule:evenodd; clip-rule:evenodd"
viewBox="0 0 790.78 790.73"
 xmlns:xlink="http://www.w3.org/1999/xlink">
 <defs>
  <style type="text/css">
   <![CDATA[
    .str0 {stroke:#4C4B4B;stroke-width:24.71;stroke-linecap:round;stroke-linejoin:round;stroke-miterlimit:10}
    .fil0 {fill:none;fill-rule:nonzero}
   ]]>
  </style>
 </defs>
 <g id="Ebene_x0020_1">
  <metadata id="CorelCorpID_0Corel-Layer"/>
  <polyline class="fil0 str0" points="12.36,580.69 86.44,543.71 209.99,741.39 135.91,778.37 "/>
  <path class="fil0 str0" d="M333.59 568.33l148.26 0c27.18,0 49.42,-22.24 49.42,-49.42l0 0c0,-27.18 -22.24,-49.42 -49.42,-49.42l-195.67 0c-17.49,0 -34.69,4.64 -49.81,13.47l-125.18 73.02"/>
  <path class="fil0 str0" d="M494.16 568.33l215.95 -82.41c25.12,-10.41 54.17,1.63 64.58,26.75l0 0c10.39,25.11 -1.64,54.17 -26.75,64.57l-218.33 92.5c-15.26,6.45 -31.64,9.79 -48.21,9.79l-194.03 0c-13.42,0 -26.59,3.65 -38.1,10.55l-44.13 26.51"/>
  <path class="fil0 str0" d="M457.14 234.75c10.79,-207.13 -197.68,-160.62 -247.1,-222.39 0,12.36 -49.42,271.81 180.71,250.39"/>
  <path class="fil0 str0" d="M543.63 259.46c172.97,37.07 174.77,-165.11 174.77,-165.11 0,0 -211.84,4.5 -174.77,165.11z"/>
  <path class="fil0 str0" d="M688.15 432.5c-20.35,-22.72 -49.89,-37.05 -82.79,-37.05 -2.1,0 -4.14,0.2 -6.21,0.31 -19.92,-29.96 -53.96,-49.73 -92.63,-49.73 -39.2,0 -73.6,20.33 -93.39,50.97 -5.82,-0.94 -11.74,-1.55 -17.8,-1.55 -22.89,0 -44.13,6.96 -61.79,18.83"/>
  <path class="fil0 str0" d="M358.3 160.62c0,0 135.9,61.78 135.9,185.33"/>
 </g>
</svg>
