<?xml version="1.0" encoding="UTF-8"?>
<!DOCTYPE svg PUBLIC "-//W3C//DTD SVG 1.1//EN" "http://www.w3.org/Graphics/SVG/1.1/DTD/svg11.dtd">
<!-- Creator: CorelDRAW 2018 (64 Bit) -->
<svg xmlns="http://www.w3.org/2000/svg" xml:space="preserve" width="27.3105mm" height="20.273mm" version="1.1" style="shape-rendering:geometricPrecision; text-rendering:geometricPrecision; image-rendering:optimizeQuality; fill-rule:evenodd; clip-rule:evenodd"
viewBox="0 0 193.2 143.42"
 xmlns:xlink="http://www.w3.org/1999/xlink">
 <defs>
  <style type="text/css">
   <![CDATA[
    .fil0 {fill:#333333;fill-rule:nonzero}
   ]]>
  </style>
 </defs>
 <g id="Ebene_x0020_1">
  <metadata id="CorelCorpID_0Corel-Layer"/>
  <path class="fil0" d="M80.47 30.36l-0.18 0c-6.48,0 -11.76,5.28 -11.76,11.77l0 9.39c0,1.65 1.34,2.99 2.99,2.99 1.66,0 3,-1.34 3,-2.99l0 -9.39c0,-3.18 2.59,-5.77 5.77,-5.77l0.18 0c3.18,0 5.77,2.59 5.77,5.77l0 9.39c0,1.65 1.34,2.99 2.99,2.99 1.66,0 3,-1.34 3,-2.99l0 -9.39c0,-6.48 -5.28,-11.77 -11.76,-11.77z"/>
  <path class="fil0" d="M112.91 30.36l-0.18 0c-6.48,0 -11.76,5.28 -11.76,11.77l0 9.39c0,1.65 1.34,2.99 3,2.99 1.65,0 2.99,-1.34 2.99,-2.99l0 -9.39c0,-3.18 2.59,-5.77 5.77,-5.77l0.18 0c3.18,0 5.77,2.59 5.77,5.77l0 9.39c0,1.65 1.34,2.99 2.99,2.99 1.66,0 3,-1.34 3,-2.99l0 -9.39c0,-6.48 -5.27,-11.77 -11.76,-11.77z"/>
  <path class="fil0" d="M80.47 63.18l-0.18 0c-6.48,0 -11.76,5.28 -11.76,11.76l0 9.4c0,1.65 1.34,2.99 2.99,2.99 1.66,0 3,-1.34 3,-2.99l0 -9.4c0,-3.18 2.59,-5.77 5.77,-5.77l0.18 0c3.18,0 5.77,2.59 5.77,5.77l0 9.4c0,1.65 1.34,2.99 2.99,2.99 1.66,0 3,-1.34 3,-2.99l0 -9.4c0,-6.48 -5.28,-11.76 -11.76,-11.76z"/>
  <path class="fil0" d="M112.91 63.18l-0.18 0c-6.48,0 -11.76,5.28 -11.76,11.76l0 9.4c0,1.65 1.34,2.99 3,2.99 1.65,0 2.99,-1.34 2.99,-2.99l0 -9.4c0,-3.18 2.59,-5.77 5.77,-5.77l0.18 0c3.18,0 5.77,2.59 5.77,5.77l0 9.4c0,1.65 1.34,2.99 2.99,2.99 1.66,0 3,-1.34 3,-2.99l0 -9.4c0,-6.48 -5.27,-11.76 -11.76,-11.76z"/>
  <path class="fil0" d="M80.47 95.98l-0.18 0c-6.48,0 -11.76,5.28 -11.76,11.77l0 9.39c0,1.65 1.34,2.99 2.99,2.99 1.66,0 3,-1.34 3,-2.99l0 -9.39c0,-3.18 2.59,-5.77 5.77,-5.77l0.18 0c3.18,0 5.77,2.59 5.77,5.77l0 9.39c0,1.65 1.34,2.99 2.99,2.99 1.66,0 3,-1.34 3,-2.99l0 -9.39c0,-6.48 -5.28,-11.77 -11.76,-11.77z"/>
  <path class="fil0" d="M112.91 95.98l-0.18 0c-6.48,0 -11.76,5.28 -11.76,11.77l0 9.39c0,1.65 1.34,2.99 3,2.99 1.65,0 2.99,-1.34 2.99,-2.99l0 -9.39c0,-3.18 2.59,-5.77 5.77,-5.77l0.18 0c3.18,0 5.77,2.59 5.77,5.77l0 9.39c0,1.65 1.34,2.99 2.99,2.99 1.66,0 3,-1.34 3,-2.99l0 -9.39c0,-6.48 -5.27,-11.77 -11.76,-11.77z"/>
  <path class="fil0" d="M57.6 123.36l0 -117.37 78.01 0 0 131.44 -78.01 0 0 -14.07zm132.61 14.07l-9.96 0 0 -85.83c0,-1.65 -1.34,-2.99 -3,-2.99l-24.81 0c-1.65,0 -2.99,1.34 -2.99,2.99 0,1.65 1.34,2.99 2.99,2.99l21.81 0 0 82.83 -32.66 0 0 -32.02 4.02 0c4.12,0 7.48,3.35 7.48,7.48l0 10.47c0,1.65 1.34,2.99 2.99,2.99 1.66,0 3,-1.34 3,-2.99l0 -10.47c0,-7.43 -6.04,-13.47 -13.47,-13.47l-4.02 0 0 -28.67 4.02 0c4.12,0 7.48,3.35 7.48,7.48l0 10.47c0,1.65 1.34,2.99 2.99,2.99 1.66,0 3,-1.34 3,-2.99l0 -10.47c0,-7.42 -6.04,-13.47 -13.47,-13.47l-4.02 0 0 -58.77 5.75 0c1.65,0 2.99,-1.33 2.99,-2.99 0,-1.66 -1.34,-3 -2.99,-3l-101.49 0c-1.65,0 -2.99,1.34 -2.99,3 0,1.65 1.34,2.99 2.99,2.99l5.75 0 0 58.77 -4.02 0c-7.43,0 -13.47,6.04 -13.47,13.47l0 10.47c0,1.65 1.34,2.99 3,2.99 1.65,0 2.99,-1.34 2.99,-2.99l0 -10.47c0,-4.12 3.35,-7.48 7.48,-7.48l4.02 0 0 28.67 -4.02 0c-7.43,0 -13.47,6.04 -13.47,13.47l0 10.47c0,1.65 1.34,2.99 3,2.99 1.65,0 2.99,-1.34 2.99,-2.99l0 -10.47c0,-4.12 3.35,-7.48 7.48,-7.48l4.02 0 0 32.02 -32.66 0 0 -82.83 21.71 0c1.65,0 3,-1.34 3,-2.99 0,-1.65 -1.34,-2.99 -3,-2.99l-24.7 0c-1.66,0 -3,1.34 -3,2.99l0 85.83 -9.96 0c-1.65,0 -3,1.34 -3,2.99 0,1.65 1.34,2.99 3,2.99l187.21 0c1.66,0 3,-1.34 3,-2.99 0,-1.65 -1.34,-2.99 -3,-2.99z"/>
 </g>
</svg>
