<?xml version="1.0" encoding="UTF-8"?>
<!DOCTYPE svg PUBLIC "-//W3C//DTD SVG 1.1//EN" "http://www.w3.org/Graphics/SVG/1.1/DTD/svg11.dtd">
<!-- Creator: CorelDRAW 2018 (64 Bit) -->
<svg xmlns="http://www.w3.org/2000/svg" xml:space="preserve" width="25.5289mm" height="19.2535mm" version="1.1" style="shape-rendering:geometricPrecision; text-rendering:geometricPrecision; image-rendering:optimizeQuality; fill-rule:evenodd; clip-rule:evenodd"
viewBox="0 0 337.47 254.51"
 xmlns:xlink="http://www.w3.org/1999/xlink">
 <defs>
  <style type="text/css">
   <![CDATA[
    .fil0 {fill:#333333;fill-rule:nonzero}
   ]]>
  </style>
 </defs>
 <g id="Ebene_x0020_1">
  <metadata id="CorelCorpID_0Corel-Layer"/>
  <path class="fil0" d="M75.79 180.85c1.02,0 2.03,0.25 2.8,0.76 1.53,0.85 2.54,2.31 2.67,3.98 3.18,19.7 18.56,34 36.75,34 13.1,0 25.43,-7.68 32.04,-20.05 0.76,-1.39 2.03,-2.39 3.56,-2.77 1.53,-0.38 3.18,-0.12 4.45,0.77 9.66,6.46 20.85,9.88 32.3,9.88 33.7,0 61.54,-29.96 62.18,-66.78 0,-1.55 0.64,-3.04 1.78,-4.08 11.19,-9.93 17.67,-24.69 17.67,-40.49 0,-28.75 -21.36,-52.13 -47.56,-52.13 -12.84,0 -24.8,5.54 -33.82,15.61 -1.4,1.5 -3.43,2.17 -5.34,1.75 -1.91,-0.41 -3.56,-1.84 -4.2,-3.75 -8.9,-27.73 -33.06,-46.37 -60.02,-46.37 -32.93,0 -60.78,28.16 -63.45,64.11 -0.13,2.65 -2.16,4.79 -4.83,5.14 -23.78,3.15 -41.58,25.34 -41.58,51.61 0,28.66 21.24,51.97 47.3,51.97 5.34,0 10.43,-0.94 15.26,-2.8 0.76,-0.26 1.4,-0.37 2.03,-0.37zm42.22 49.93c-21.74,0 -40.44,-15.28 -46.41,-37.17 -4.2,1.06 -8.65,1.59 -13.1,1.59 -32.3,0 -58.49,-28.33 -58.49,-63.16 0,-30.24 19.84,-56.05 46.92,-61.93 4.83,-39.66 36.75,-70.13 74.13,-70.13 28.99,0 55.31,18.13 67.52,45.93 10.3,-8.56 22.76,-13.17 35.86,-13.17 32.42,0 58.75,28.41 58.75,63.32 0,18.13 -7.12,35.18 -19.58,47.19 -1.91,41.77 -34.2,75.35 -73.24,75.35 -11.7,0 -23.14,-3.01 -33.57,-8.75 -9.03,13.03 -23.4,20.92 -38.78,20.92z"/>
  <path class="fil0" d="M119.91 162.84l-11.83 0c-21.62,0 -39.16,-18.95 -39.16,-42.23l0 -0.74c0,-23.27 17.55,-42.22 39.16,-42.22l11.83 0c3.18,0 5.59,2.51 5.59,5.59 0,3.08 -2.42,5.6 -5.59,5.6l-11.83 0c-15.39,0 -27.97,13.92 -27.97,31.03l0 0.74c0,17.11 12.59,31.03 27.97,31.03l11.83 0c3.18,0 5.59,2.51 5.59,5.61 0,3.09 -2.42,5.6 -5.59,5.6z"/>
  <path class="fil0" d="M157.04 89.18c-12.59,0 -22.89,13.77 -22.89,30.69 0,16.92 10.3,30.69 22.89,30.69 12.59,0 22.76,-13.77 22.76,-30.69 0,-16.92 -10.17,-30.69 -22.76,-30.69zm0 72.59c-18.82,0 -34.08,-18.79 -34.08,-41.9 0,-23.09 15.26,-41.88 34.08,-41.88 18.69,0 33.95,18.79 33.95,41.88 0,23.1 -15.26,41.9 -33.95,41.9z"/>
  <path class="fil0" d="M212.73 177.18l-15.77 0c-3.18,0 -5.6,-2.51 -5.6,-5.6l0 -8.2c0,-7.44 8.01,-13.2 14.88,-13.2 0.38,0 0.89,-0.57 0.89,-1.44l0 -1.34c0,-0.86 -0.51,-1.43 -0.76,-1.43l-9.41 0c-3.18,0 -5.6,-2.51 -5.6,-5.59 0,-3.1 2.42,-5.61 5.6,-5.61l9.41 0c6.61,0 11.95,5.67 11.95,12.63l0 1.34c0,6.97 -5.34,12.63 -11.95,12.63 -1.53,0 -3.56,1.36 -3.82,2.15l0 2.47 10.17 0c3.18,0 5.6,2.51 5.6,5.59 0,3.09 -2.42,5.6 -5.6,5.6z"/>
  <path class="fil0" d="M299.83 156.97c-14.5,0 -26.32,10.92 -26.32,24.38 0,13.44 11.83,24.38 26.32,24.38 14.62,0 26.45,-10.94 26.45,-24.38 0,-13.45 -11.83,-24.38 -26.45,-24.38zm0 59.94c-20.6,0 -37.51,-15.96 -37.51,-35.56 0,-19.62 16.91,-35.58 37.51,-35.58 20.73,0 37.64,15.96 37.64,35.58 0,19.61 -16.91,35.56 -37.64,35.56z"/>
  <path class="fil0" d="M250.11 218.99c-6.74,0 -12.21,5.47 -12.21,12.17 0,6.71 5.47,12.17 12.21,12.17 6.74,0 12.21,-5.46 12.21,-12.17 0,-6.7 -5.47,-12.17 -12.21,-12.17zm0 35.53c-12.97,0 -23.4,-10.48 -23.4,-23.36 0,-12.88 10.43,-23.36 23.4,-23.36 12.97,0 23.4,10.48 23.4,23.36 0,12.88 -10.43,23.36 -23.4,23.36z"/>
 </g>
</svg>
