<?xml version="1.0" encoding="UTF-8"?>
<!DOCTYPE svg PUBLIC "-//W3C//DTD SVG 1.1//EN" "http://www.w3.org/Graphics/SVG/1.1/DTD/svg11.dtd">
<!-- Creator: CorelDRAW 2018 (64 Bit) -->
<svg xmlns="http://www.w3.org/2000/svg" xml:space="preserve" width="22.5779mm" height="22.5779mm" version="1.1" style="shape-rendering:geometricPrecision; text-rendering:geometricPrecision; image-rendering:optimizeQuality; fill-rule:evenodd; clip-rule:evenodd"
viewBox="0 0 593.53 593.53"
 xmlns:xlink="http://www.w3.org/1999/xlink">
 <defs>
  <style type="text/css">
   <![CDATA[
    .str0 {stroke:#4C4B4B;stroke-width:18.55;stroke-linecap:round;stroke-linejoin:round;stroke-miterlimit:10}
    .str1 {stroke:#4C4B4B;stroke-width:18.55;stroke-linecap:square;stroke-linejoin:round;stroke-miterlimit:10}
    .fil0 {fill:none;fill-rule:nonzero}
   ]]>
  </style>
 </defs>
 <g id="Ebene_x0020_1">
  <metadata id="CorelCorpID_0Corel-Layer"/>
  <path class="fil0 str0" d="M120.56 231.85c-46.37,-18.55 -111.28,-9.27 -111.29,-9.27 0,0 1.26,136.08 64.92,204.03 57.48,61.35 131.47,44.83 164.2,36.37 50.77,-13.13 58.37,47.09 58.39,84.18"/>
  <path class="fil0 str0" d="M343.13 445.15c0,0 0.01,-64.94 94.7,-85.98 72.25,-16.04 146.42,2.51 146.42,2.51 0,0 -48.44,242.05 -241.1,148.38"/>
  <path class="fil0 str0" d="M297.97 556.62c0,0 52.45,-86.93 175.02,-130.02"/>
  <path class="fil0 str0" d="M417.32 185.48l0 46.37c0,66.59 -53.97,120.56 -120.56,120.56l0 0c-66.59,0 -120.56,-53.97 -120.56,-120.56l0 -46.37"/>
  <line class="fil0 str1" x1="296.76" y1="398.78" x2="296.76" y2= "584.26" />
  <path class="fil0 str1" d="M194.75 185.48l-18.55 0c-10.24,0 -18.55,-8.31 -18.55,-18.55l0 -27.82c0,-10.24 8.31,-18.55 18.55,-18.55l241.12 0c10.24,0 18.55,8.31 18.55,18.55l0 27.82c0,10.24 -8.31,18.55 -18.55,18.55l-129.83 0"/>
  <path class="fil0 str1" d="M204.03 120.56l0 -83.46c0,-15.3 12.52,-27.82 27.82,-27.82l0 0c15.3,0 27.82,12.52 27.82,27.82l0 83.46"/>
  <path class="fil0 str1" d="M333.86 120.56l0 -83.46c0,-15.3 12.52,-27.82 27.82,-27.82l0 0c15.3,0 27.82,12.52 27.82,27.82l0 83.46"/>
 </g>
</svg>
