<?xml version="1.0" encoding="UTF-8"?>
<svg id="Ebene_2" data-name="Ebene 2" xmlns="http://www.w3.org/2000/svg" viewBox="0 0 49.12 46.67">
  <defs>
    <style>
      .cls-1 {
        fill: #4d4d4d;
      }
    </style>
  </defs>
  <g id="Layer_2" data-name="Layer 2">
    <g>
      <path class="cls-1" d="M24.56,0c-8.48,0-15.38,6.9-15.38,15.38,0,5,2.41,9.65,6.48,12.54v12c0,2.58,2.1,4.69,4.69,4.69h1.3c.42,1.2,1.57,2.07,2.91,2.07s2.49-.87,2.91-2.07h1.3c2.58,0,4.69-2.1,4.69-4.69v-12c4.07-2.89,6.48-7.53,6.48-12.54,0-8.48-6.9-15.38-15.38-15.38Zm6.84,39.91c0,1.45-1.18,2.63-2.63,2.63h-8.43c-1.45,0-2.63-1.18-2.63-2.63v-.28h8.9c.57,0,1.03-.46,1.03-1.03s-.46-1.03-1.03-1.03h-8.9v-2.91h13.69v5.25Zm.46-13.4c-.29,.19-.46,.51-.46,.86v5.24h-13.69v-5.24c0-.35-.17-.67-.46-.86-3.77-2.48-6.01-6.64-6.01-11.13,0-7.34,5.97-13.32,13.32-13.32s13.32,5.98,13.32,13.32c0,4.5-2.25,8.66-6.01,11.13Z"/>
      <path class="cls-1" d="M30.73,12.99h-12.34c-.43,0-.81,.27-.96,.67-.15,.4-.03,.86,.29,1.14l5.82,5.04v8.31c0,.57,.46,1.03,1.03,1.03s1.03-.46,1.03-1.03v-8.31l5.82-5.04c.33-.28,.44-.73,.29-1.14-.15-.4-.53-.67-.96-.67Zm-6.17,5.01l-3.41-2.95h6.82l-3.41,2.95Z"/>
      <path class="cls-1" d="M7.67,4.44l-2.98-1.72c-.49-.28-1.12-.11-1.41,.38-.28,.49-.11,1.12,.38,1.41l2.98,1.72c.16,.09,.34,.14,.51,.14,.36,0,.7-.18,.89-.51,.28-.49,.12-1.12-.38-1.41Z"/>
      <path class="cls-1" d="M5.5,15.38c0-.57-.46-1.03-1.03-1.03H1.03c-.57,0-1.03,.46-1.03,1.03s.46,1.03,1.03,1.03h3.44c.57,0,1.03-.46,1.03-1.03Z"/>
      <path class="cls-1" d="M6.65,24.53l-2.98,1.72c-.49,.28-.66,.91-.38,1.41,.19,.33,.54,.52,.89,.52,.17,0,.35-.04,.51-.14l2.98-1.72c.49-.28,.66-.91,.38-1.41-.28-.49-.91-.66-1.41-.38Z"/>
      <path class="cls-1" d="M45.46,26.25l-2.98-1.72c-.49-.28-1.12-.12-1.41,.38-.28,.49-.12,1.12,.38,1.41l2.98,1.72c.16,.09,.34,.14,.51,.14,.36,0,.7-.18,.89-.52,.28-.49,.12-1.12-.38-1.41Z"/>
      <path class="cls-1" d="M48.09,14.35h-3.44c-.57,0-1.03,.46-1.03,1.03s.46,1.03,1.03,1.03h3.44c.57,0,1.03-.46,1.03-1.03s-.46-1.03-1.03-1.03Z"/>
      <path class="cls-1" d="M41.97,6.36c.17,0,.35-.04,.51-.14l2.98-1.72c.49-.28,.66-.91,.38-1.41-.28-.49-.91-.66-1.41-.38l-2.98,1.72c-.49,.28-.66,.91-.38,1.41,.19,.33,.54,.51,.89,.51Z"/>
    </g>
  </g>
</svg>