<?xml version="1.0" encoding="UTF-8"?>
<!DOCTYPE svg PUBLIC "-//W3C//DTD SVG 1.1//EN" "http://www.w3.org/Graphics/SVG/1.1/DTD/svg11.dtd">
<!-- Creator: CorelDRAW 2018 (64 Bit) -->
<svg xmlns="http://www.w3.org/2000/svg" xml:space="preserve" width="20.3012mm" height="22.134mm" version="1.1" style="shape-rendering:geometricPrecision; text-rendering:geometricPrecision; image-rendering:optimizeQuality; fill-rule:evenodd; clip-rule:evenodd"
viewBox="0 0 146.53 159.76"
 xmlns:xlink="http://www.w3.org/1999/xlink">
 <defs>
  <style type="text/css">
   <![CDATA[
    .fil0 {fill:#333333;fill-rule:nonzero}
   ]]>
  </style>
 </defs>
 <g id="Ebene_x0020_1">
  <metadata id="CorelCorpID_0Corel-Layer"/>
  <path class="fil0" d="M145.57 0.94c-1.01,-0.99 -2.54,-1.22 -3.79,-0.56 -17.37,9.14 -29.93,10.71 -44.47,12.53 -5.78,0.72 -11.77,1.47 -18.41,2.76 -71.91,15.18 -67.61,59.64 -65.99,76.38 0.69,7.31 2.24,14.58 4.59,21.6 0.57,1.7 2.41,2.62 4.11,2.05 1.7,-0.57 2.62,-2.41 2.05,-4.11 -2.19,-6.56 -3.63,-13.34 -4.28,-20.16 -1.6,-16.59 -5.35,-55.43 60.82,-69.4 6.38,-1.24 12.25,-1.97 17.92,-2.68 12.33,-1.54 24.08,-3.02 38.6,-9.34 -6.71,17.19 -7.42,34.1 -8.06,49.27 -0.87,20.49 -1.61,38.18 -15.26,53.25 -25.75,28.43 -65.58,19.74 -79.04,15.7 4.23,-5.86 8.98,-12.83 14.35,-21.17 1.01,-1.56 2,-3.14 3.02,-4.76 8.94,-14.22 19.08,-30.33 51.55,-56.3 1.4,-1.12 1.63,-3.16 0.51,-4.56 -1.12,-1.39 -3.16,-1.62 -4.56,-0.51 -33.32,26.65 -43.77,43.26 -52.98,57.91 -1,1.59 -1.99,3.16 -2.98,4.7 -23.44,36.37 -34.58,45.92 -41.67,50.18 -1.54,0.92 -2.03,2.92 -1.11,4.45 0.61,1.01 1.68,1.58 2.79,1.58 0.57,0 1.15,-0.15 1.67,-0.46 5.73,-3.44 13.15,-9.42 25.36,-25.54 5.49,1.79 18.51,5.41 33.89,5.41 17.54,0 38.13,-4.72 54.03,-22.28 15.22,-16.81 16.06,-36.5 16.93,-57.33 0.75,-17.75 1.53,-36.11 11.05,-54.84 0.64,-1.26 0.4,-2.79 -0.61,-3.78z"/>
 </g>
</svg>
