<?xml version="1.0" encoding="UTF-8"?>
<!DOCTYPE svg PUBLIC "-//W3C//DTD SVG 1.1//EN" "http://www.w3.org/Graphics/SVG/1.1/DTD/svg11.dtd">
<!-- Creator: CorelDRAW 2018 (64 Bit) -->
<svg xmlns="http://www.w3.org/2000/svg" xml:space="preserve" width="9.988mm" height="11.2025mm" version="1.1" style="shape-rendering:geometricPrecision; text-rendering:geometricPrecision; image-rendering:optimizeQuality; fill-rule:evenodd; clip-rule:evenodd"
viewBox="0 0 80.86 90.69"
 xmlns:xlink="http://www.w3.org/1999/xlink">
 <defs>
  <style type="text/css">
   <![CDATA[
    .fil0 {fill:none}
    .fil1 {fill:black;fill-rule:nonzero}
   ]]>
  </style>
 </defs>
 <g id="Ebene_x0020_1">
  <metadata id="CorelCorpID_0Corel-Layer"/>
  <rect class="fil0" width="80.86" height="90.69"/>
 </g>
 <g id="_x0020_1">
  <metadata id="CorelCorpID_1Corel-Layer"/>
  <g id="_2392232035520">
   <path class="fil1" d="M64.93 71.91l-35.98 0c-1.64,0 -2.98,-1.34 -2.98,-2.98l0 -53.43c0,-1.64 1.34,-2.98 2.98,-2.98l35.98 0c1.64,0 2.98,1.34 2.98,2.98l0 53.43c0,1.64 -1.34,2.98 -2.98,2.98zm-35.98 -56.84l0 0c-0.23,0 -0.43,0.19 -0.43,0.43l0 53.43c0,0.23 0.19,0.43 0.43,0.43l35.98 0c0.23,0 0.43,-0.19 0.43,-0.43l0 -53.43c0,-0.23 -0.19,-0.43 -0.43,-0.43l-35.98 0z"/>
   <path class="fil1" d="M46.94 31.1c-3.4,0 -6.17,-2.77 -6.17,-6.17 0,-3.4 2.77,-6.17 6.17,-6.17 3.4,0 6.17,2.77 6.17,6.17 0,3.4 -2.77,6.17 -6.17,6.17zm0 -9.79l0 0c-2,0 -3.62,1.62 -3.62,3.62 0,1.99 1.62,3.62 3.62,3.62 2,0 3.62,-1.62 3.62,-3.62 0,-2 -1.62,-3.62 -3.62,-3.62z"/>
   <path class="fil1" d="M46.94 63.04c-2.48,0 -4.49,-2.02 -4.49,-4.49 0,-2.48 2.02,-4.49 4.49,-4.49 2.48,0 4.49,2.02 4.49,4.49 0,2.48 -2.02,4.49 -4.49,4.49zm0 -6.43l0 0c-1.07,0 -1.94,0.87 -1.94,1.94 0,1.07 0.87,1.94 1.94,1.94 1.07,0 1.94,-0.87 1.94,-1.94 0,-1.07 -0.87,-1.94 -1.94,-1.94z"/>
   <path class="fil1" d="M57 79.64l-20.12 0c-2.11,0 -3.83,-1.72 -3.83,-3.83l0 -5.18c0,-0.71 0.57,-1.28 1.28,-1.28l25.23 0c0.71,0 1.28,0.57 1.28,1.28l0 5.18c0,2.11 -1.72,3.83 -3.83,3.83zm-21.39 -7.73l0 0 0 3.9c0,0.7 0.57,1.28 1.28,1.28l20.12 0c0.7,0 1.28,-0.57 1.28,-1.28l0 -3.9 -22.67 0z"/>
   <path class="fil1" d="M34.59 78.21l-10.32 0c-5.51,0 -9.98,-4.48 -9.98,-9.98l0 -24.03c0,-0.71 0.57,-1.28 1.28,-1.28 0.71,0 1.28,0.57 1.28,1.28l0 24.03c0,4.1 3.33,7.43 7.43,7.43l10.32 0c0.71,0 1.28,0.57 1.28,1.28 0,0.71 -0.57,1.28 -1.28,1.28z"/>
   <path class="fil1" d="M15.56 45.47c-2.44,0 -4.42,-1.98 -4.42,-4.42l0 -2.75c0,-0.71 0.57,-1.28 1.28,-1.28l6.28 0c0.71,0 1.28,0.57 1.28,1.28l0 2.75c0,2.44 -1.98,4.42 -4.42,4.42zm-1.86 -5.89l0 0 0 1.47c0,1.03 0.84,1.86 1.86,1.86 1.03,0 1.86,-0.84 1.86,-1.86l0 -1.47 -3.72 0z"/>
   <path class="fil1" d="M13.43 39.58c-0.71,0 -1.28,-0.57 -1.28,-1.28l0 -3.69c0,-0.71 0.57,-1.28 1.28,-1.28 0.71,0 1.28,0.57 1.28,1.28l0 3.69c0,0.71 -0.57,1.28 -1.28,1.28z"/>
   <path class="fil1" d="M17.69 39.58c-0.71,0 -1.28,-0.57 -1.28,-1.28l0 -3.69c0,-0.71 0.57,-1.28 1.28,-1.28 0.71,0 1.28,0.57 1.28,1.28l0 3.69c0,0.71 -0.57,1.28 -1.28,1.28z"/>
  </g>
 </g>
</svg>
