<?xml version="1.0" encoding="UTF-8"?>
<!DOCTYPE svg PUBLIC "-//W3C//DTD SVG 1.1//EN" "http://www.w3.org/Graphics/SVG/1.1/DTD/svg11.dtd">
<!-- Creator: CorelDRAW 2018 (64 Bit) -->
<svg xmlns="http://www.w3.org/2000/svg" xml:space="preserve" width="22.5777mm" height="22.5778mm" version="1.1" style="shape-rendering:geometricPrecision; text-rendering:geometricPrecision; image-rendering:optimizeQuality; fill-rule:evenodd; clip-rule:evenodd"
viewBox="0 0 3673.89 3673.91"
 xmlns:xlink="http://www.w3.org/1999/xlink">
 <defs>
  <style type="text/css">
   <![CDATA[
    .str0 {stroke:#4C4B4B;stroke-width:114.82;stroke-linecap:round;stroke-linejoin:round;stroke-miterlimit:10}
    .fil0 {fill:none;fill-rule:nonzero}
   ]]>
  </style>
 </defs>
 <g id="Ebene_x0020_1">
  <metadata id="CorelCorpID_0Corel-Layer"/>
  <path class="fil0 str0" d="M3072.11 1901.2l-262.11 -477.38c-83.75,-152.58 -268.2,-218.71 -429.85,-154.08l-356.7 142.64 -157.69 -262.8c-22.05,-36.73 -29.63,-80.37 -21.19,-122.32l50.92 -254.71 -150.86 -100.51c-23.64,-15.78 -32.2,-46.44 -20.15,-72.17l202.23 -431.73c13.78,-29.22 48.85,-41.4 77.73,-26.98l291.73 145.86 175.54 0c35.18,0 69.58,10.79 98.45,30.93l285.07 198.68 164.01 0c17.62,0 34.27,8.09 45.17,21.98l195.41 249.49c7.92,10.04 12.22,22.55 12.22,35.36l0 267.22 313.89 523.12c16.71,27.84 7.06,64.01 -21.3,79.75l-414.34 230.19c-27.79,15.44 -62.92,5.34 -78.19,-22.55z"/>
  <path class="fil0 str0" d="M1722.12 516.64l-287.03 -114.82 -574.03 0c-31.7,0 -57.41,-25.71 -57.41,-57.39l0 -229.62c0,-31.7 25.71,-57.41 57.41,-57.41l574.03 0 401.84 114.8"/>
  <path class="fil0 str0" d="M2870.22 2009.16l-138.64 68.65c-109.87,54.43 -243.04,12.87 -302.63,-94.25l-213.56 -384.45 229.16 -91.68c52.3,-20.89 112.07,-0.73 141.05,47.53l141.68 236.11"/>
  <polyline class="fil0 str0" points="3214.64,1894.36 3329.46,2123.98 3616.48,1951.75 3530.32,1779.5 "/>
  <line class="fil0 str0" x1="1894.35" y1="746.26" x2="2066.56" y2= "746.26" />
  <path class="fil0 str0" d="M1420.47 2654.23c598.1,-907.97 -248.33,-1697.86 -604.71,-1850.56 105.8,317.21 -528.7,740.24 -528.7,1268.92 0,0 -52.87,740.24 740.24,740.24"/>
  <path class="fil0 str0" d="M918.45 2009.16c0,0 -211.59,947.42 861.08,1262.9 0,0 1033.29,287.03 1492.52,-803.67"/>
  <path class="fil0 str0" d="M1148.07 3329.47c-446.49,-690.06 -1090.68,0 -1090.68,0 0,0 688.85,631.46 1090.68,0z"/>
  <path class="fil0 str0" d="M3616.48 1951.75c0,0 0,113.95 0,172.23 0,824.27 -668.25,1492.52 -1492.52,1492.52 -248.57,0 -482.89,-60.79 -688.98,-168.25"/>
 </g>
</svg>
