<?xml version="1.0" encoding="UTF-8"?>
<!DOCTYPE svg PUBLIC "-//W3C//DTD SVG 1.1//EN" "http://www.w3.org/Graphics/SVG/1.1/DTD/svg11.dtd">
<!-- Creator: CorelDRAW 2018 (64 Bit) -->
<svg xmlns="http://www.w3.org/2000/svg" xml:space="preserve" width="22.5778mm" height="22.5778mm" version="1.1" style="shape-rendering:geometricPrecision; text-rendering:geometricPrecision; image-rendering:optimizeQuality; fill-rule:evenodd; clip-rule:evenodd"
viewBox="0 0 468.77 468.77"
 xmlns:xlink="http://www.w3.org/1999/xlink">
 <defs>
  <style type="text/css">
   <![CDATA[
    .str0 {stroke:#4C4B4B;stroke-width:14.65;stroke-linecap:round;stroke-linejoin:round;stroke-miterlimit:10}
    .fil0 {fill:none;fill-rule:nonzero}
   ]]>
  </style>
 </defs>
 <g id="Ebene_x0020_1">
  <metadata id="CorelCorpID_0Corel-Layer"/>
  <path class="fil0 str0" d="M219.74 461.45l-168.47 0c-8.06,0 -14.65,-6.59 -14.65,-14.65l0 -219.74 -29.3 0 0 -51.27 214.87 -164.76c3.49,-2.34 7.68,-3.71 12.2,-3.71 4.51,0 8.7,1.37 12.19,3.71l214.87 164.76 0 51.27 -29.3 0 0 219.74c0,8.06 -6.59,14.65 -14.65,14.65l-36.62 0c-80.91,0 -146.49,-65.59 -146.49,-146.49l0 -36.62"/>
  <polyline class="fil0 str0" points="344.26,43.95 344.26,14.65 432.15,14.65 432.15,102.54 "/>
  <path class="fil0 str0" d="M256.36 400.3c-7.05,1.66 -14.42,2.55 -21.97,2.55 -52.59,0 -95.22,-42.63 -95.22,-95.22 0,-73.25 95.22,-153.82 95.22,-153.82 0,0 95.22,80.57 95.22,153.82 0,22.1 -7.53,42.44 -20.16,58.6"/>
 </g>
</svg>
