<?xml version="1.0" encoding="UTF-8"?>
<!DOCTYPE svg PUBLIC "-//W3C//DTD SVG 1.1//EN" "http://www.w3.org/Graphics/SVG/1.1/DTD/svg11.dtd">
<!-- Creator: CorelDRAW 2018 (64 Bit) -->
<svg xmlns="http://www.w3.org/2000/svg" xml:space="preserve" width="14.4606mm" height="16.2278mm" version="1.1" style="shape-rendering:geometricPrecision; text-rendering:geometricPrecision; image-rendering:optimizeQuality; fill-rule:evenodd; clip-rule:evenodd"
viewBox="0 0 920.16 1032.61"
 xmlns:xlink="http://www.w3.org/1999/xlink">
 <defs>
  <style type="text/css">
   <![CDATA[
    .str0 {stroke:#5B5857;stroke-width:44.9;stroke-miterlimit:10}
    .str1 {stroke:#5B5857;stroke-width:44.9;stroke-linejoin:round;stroke-miterlimit:10}
    .fil0 {fill:none;fill-rule:nonzero}
   ]]>
  </style>
 </defs>
 <g id="Ebene_x0020_1">
  <metadata id="CorelCorpID_0Corel-Layer"/>
  <line class="fil0 str0" x1="830.37" y1="157.13" x2="920.16" y2= "157.13" />
  <line class="fil0 str0" x1="830.37" y1="291.82" x2="920.16" y2= "291.82" />
  <line class="fil0 str0" x1="830.37" y1="426.52" x2="920.16" y2= "426.52" />
  <line class="fil0 str0" x1="830.37" y1="561.2" x2="920.16" y2= "561.2" />
  <path class="fil0 str1" d="M296.64 614.92c26.92,-5.38 63.77,-19.75 81.4,-32.61 83.71,-61.11 119.83,-175.05 46.76,-259.91 27.93,57.17 -58.5,137.29 -129.8,75.13 -81.53,-71.09 125.93,-170.99 -110.01,-330.19 64.76,177.41 -240.44,227.07 -143.58,437.99 26.78,58.29 76.17,93.74 131.68,109.61"/>
  <path class="fil0 str0" d="M763.02 758.95l0 -669.16c0,-37.19 -30.15,-67.34 -67.34,-67.34 -37.17,0 -67.35,30.15 -67.35,67.34l0 669.16c-40.2,23.3 -67.34,66.71 -67.34,116.52 0,74.4 60.32,134.69 134.69,134.69 74.39,0 134.68,-60.29 134.68,-134.69 0,-49.81 -27.11,-93.23 -67.34,-116.52z"/>
 </g>
</svg>
