<?xml version="1.0" encoding="UTF-8"?>
<!DOCTYPE svg PUBLIC "-//W3C//DTD SVG 1.1//EN" "http://www.w3.org/Graphics/SVG/1.1/DTD/svg11.dtd">
<!-- Creator: CorelDRAW 2018 (64 Bit) -->
<svg xmlns="http://www.w3.org/2000/svg" xml:space="preserve" width="9.988mm" height="11.2025mm" version="1.1" style="shape-rendering:geometricPrecision; text-rendering:geometricPrecision; image-rendering:optimizeQuality; fill-rule:evenodd; clip-rule:evenodd"
viewBox="0 0 60.12 67.43"
 xmlns:xlink="http://www.w3.org/1999/xlink">
 <defs>
  <style type="text/css">
   <![CDATA[
    .fil0 {fill:none}
    .fil1 {fill:black;fill-rule:nonzero}
   ]]>
  </style>
 </defs>
 <g id="Ebene_x0020_1">
  <metadata id="CorelCorpID_0Corel-Layer"/>
  <rect class="fil0" width="60.12" height="67.43"/>
 </g>
 <g id="_x0020_1">
  <metadata id="CorelCorpID_1Corel-Layer"/>
  <g id="_2392228146896">
   <path class="fil1" d="M47.23 56.03l-34.35 0c-2.27,0 -4.12,-1.85 -4.12,-4.11l0 -28.17c0,-2.27 1.85,-4.12 4.12,-4.12l34.35 0c2.27,0 4.11,1.85 4.11,4.12l0 28.17c0,2.27 -1.85,4.11 -4.11,4.11zm-34.35 -34.5l0 0c-1.22,0 -2.22,0.99 -2.22,2.22l0 28.17c0,1.22 0.99,2.22 2.22,2.22l34.35 0c1.22,0 2.22,-0.99 2.22,-2.22l0 -28.17c0,-1.22 -0.99,-2.22 -2.22,-2.22l-34.35 0z"/>
   <path class="fil1" d="M38.77 51.44l-17.41 0c-2.95,0 -5.34,-2.4 -5.34,-5.34 0,-2.95 2.4,-5.34 5.34,-5.34l17.41 0c2.95,0 5.34,2.4 5.34,5.34 0,2.95 -2.4,5.34 -5.34,5.34zm-17.41 -8.78l0 0c-1.9,0 -3.44,1.54 -3.44,3.44 0,1.9 1.54,3.44 3.44,3.44l17.41 0c1.9,0 3.44,-1.54 3.44,-3.44 0,-1.9 -1.54,-3.44 -3.44,-3.44l-17.41 0z"/>
   <path class="fil1" d="M40.78 21.52l-21.45 0c-0.52,0 -0.95,-0.42 -0.95,-0.95l0 -3.88c0,-1.57 1.28,-2.85 2.85,-2.85l17.65 0c1.57,0 2.85,1.28 2.85,2.85l0 3.88c0,0.52 -0.42,0.95 -0.95,0.95zm-20.5 -1.9l0 0 19.55 0 0 -2.93c0,-0.52 -0.43,-0.95 -0.95,-0.95l-17.65 0c-0.52,0 -0.95,0.43 -0.95,0.95l0 2.93z"/>
   <path class="fil1" d="M24.73 47.05l-2.53 0c-0.52,0 -0.95,-0.42 -0.95,-0.95 0,-0.52 0.42,-0.95 0.95,-0.95l2.53 0c0.52,0 0.95,0.42 0.95,0.95 0,0.52 -0.42,0.95 -0.95,0.95z"/>
   <path class="fil1" d="M31.33 47.05l-2.53 0c-0.52,0 -0.95,-0.42 -0.95,-0.95 0,-0.52 0.42,-0.95 0.95,-0.95l2.53 0c0.52,0 0.95,0.42 0.95,0.95 0,0.52 -0.43,0.95 -0.95,0.95z"/>
   <path class="fil1" d="M37.92 47.05l-2.53 0c-0.52,0 -0.95,-0.42 -0.95,-0.95 0,-0.52 0.42,-0.95 0.95,-0.95l2.53 0c0.52,0 0.95,0.42 0.95,0.95 0,0.52 -0.42,0.95 -0.95,0.95z"/>
   <path class="fil1" d="M30.06 28.63c-0.78,0 -1.41,-0.63 -1.41,-1.41 0,-0.78 0.63,-1.41 1.41,-1.41 0.78,0 1.41,0.63 1.41,1.41 0,0.78 -0.63,1.41 -1.41,1.41zm0 -1.9l0 0c-0.27,0 -0.49,0.22 -0.49,0.49 0,0.27 0.22,0.49 0.49,0.49 0.27,0 0.49,-0.22 0.49,-0.49 0,-0.27 -0.22,-0.49 -0.49,-0.49z"/>
   <path class="fil1" d="M25.9 15.75l-3.88 0c-0.52,0 -0.95,-0.42 -0.95,-0.95l0 -7.2c0,-0.52 0.42,-0.95 0.95,-0.95l3.88 0c0.52,0 0.95,0.43 0.95,0.95l0 7.2c0,0.52 -0.43,0.95 -0.95,0.95zm-2.93 -1.9l0 0 1.98 0 0 -5.3 -1.98 0 0 5.3z"/>
   <path class="fil1" d="M38.1 15.75l-3.88 0c-0.52,0 -0.95,-0.42 -0.95,-0.95l0 -7.2c0,-0.52 0.42,-0.95 0.95,-0.95l3.88 0c0.52,0 0.95,0.43 0.95,0.95l0 7.2c0,0.52 -0.42,0.95 -0.95,0.95zm-2.93 -1.9l0 0 1.98 0 0 -5.3 -1.98 0 0 5.3z"/>
  </g>
 </g>
</svg>
