<?xml version="1.0" encoding="UTF-8"?>
<!DOCTYPE svg PUBLIC "-//W3C//DTD SVG 1.1//EN" "http://www.w3.org/Graphics/SVG/1.1/DTD/svg11.dtd">
<!-- Creator: CorelDRAW 2018 (64 Bit) -->
<svg xmlns="http://www.w3.org/2000/svg" xml:space="preserve" width="9.988mm" height="11.2025mm" version="1.1" style="shape-rendering:geometricPrecision; text-rendering:geometricPrecision; image-rendering:optimizeQuality; fill-rule:evenodd; clip-rule:evenodd"
viewBox="0 0 91.24 102.33"
 xmlns:xlink="http://www.w3.org/1999/xlink">
 <defs>
  <style type="text/css">
   <![CDATA[
    .fil0 {fill:none}
    .fil1 {fill:#4D4D4D;fill-rule:nonzero}
   ]]>
  </style>
 </defs>
 <g id="Ebene_x0020_1">
  <metadata id="CorelCorpID_0Corel-Layer"/>
  <rect class="fil0" width="91.24" height="102.33"/>
 </g>
 <g id="__x0023_Layer_x0020_2">
  <metadata id="CorelCorpID_1Corel-Layer"/>
  <g id="_2355853609376">
   <path class="fil1" d="M76.48 19.01l-61.72 0c-0.72,0 -1.3,0.58 -1.3,1.3l0 61.72c0,0.72 0.58,1.3 1.3,1.3l61.72 0c0.72,0 1.3,-0.58 1.3,-1.3l0 -61.72c0,-0.72 -0.58,-1.3 -1.3,-1.3zm-1.3 61.72l0 0 -59.12 0 0 -59.12 59.12 0 0 59.12z"/>
   <path class="fil1" d="M45.62 75.53c13.43,0 24.36,-10.93 24.36,-24.36 0,-13.43 -10.93,-24.36 -24.36,-24.36 -13.43,0 -24.36,10.93 -24.36,24.36 0,13.43 10.93,24.36 24.36,24.36zm-16.27 -38.79l0 0 3.91 3.91c-2.15,2.53 -3.55,5.72 -3.83,9.22l-5.54 0c0.3,-5.02 2.31,-9.59 5.45,-13.13zm37.99 13.13l0 0 -5.54 0c-0.28,-3.5 -1.67,-6.69 -3.83,-9.22l3.91 -3.91c3.14,3.54 5.15,8.11 5.45,13.13zm-5.45 15.73l0 0 -3.91 -3.91c2.15,-2.53 3.55,-5.72 3.83,-9.22l5.54 0c-0.3,5.02 -2.31,9.59 -5.45,13.13zm-16.27 -18.98l0 0c2.51,0 4.55,2.04 4.55,4.55 0,2.51 -2.04,4.55 -4.55,4.55 -2.51,0 -4.55,-2.04 -4.55,-4.55 0,-2.51 2.04,-4.55 4.55,-4.55zm-4.05 10.43l0 0c0.81,0.56 1.74,0.96 2.75,1.14l0 6.55c-2.79,-0.26 -5.33,-1.37 -7.38,-3.06l4.63 -4.63zm5.35 1.14l0 0c1,-0.19 1.94,-0.58 2.75,-1.14l4.63 4.63c-2.05,1.69 -4.59,2.8 -7.38,3.06l0 -6.55zm4.59 -2.98l0 0c0.56,-0.81 0.96,-1.74 1.14,-2.75l6.55 0c-0.26,2.79 -1.37,5.33 -3.06,7.38l-4.63 -4.63zm1.14 -5.35l0 0c-0.19,-1.01 -0.58,-1.94 -1.14,-2.75l4.63 -4.63c1.69,2.05 2.8,4.59 3.06,7.38l-6.55 0zm-2.98 -4.59l0 0c-0.81,-0.56 -1.74,-0.96 -2.75,-1.14l0 -6.55c2.79,0.26 5.33,1.37 7.38,3.06l-4.63 4.63zm-5.35 -1.14l0 0c-1,0.19 -1.94,0.58 -2.75,1.14l-4.63 -4.63c2.05,-1.69 4.59,-2.8 7.38,-3.06l0 6.55zm-4.59 2.98l0 0c-0.56,0.81 -0.96,1.74 -1.14,2.75l-6.55 0c0.26,-2.79 1.37,-5.33 3.06,-7.38l4.63 4.63zm-1.14 5.35l0 0c0.19,1.01 0.58,1.94 1.14,2.75l-4.63 4.63c-1.69,-2.05 -2.8,-4.59 -3.06,-7.38l6.55 0zm-3.49 11.06l0 0c2.53,2.15 5.72,3.55 9.22,3.83l0 5.54c-5.02,-0.3 -9.59,-2.31 -13.13,-5.45l3.91 -3.91zm11.82 3.83l0 0c3.5,-0.28 6.69,-1.67 9.22,-3.83l3.91 3.91c-3.54,3.15 -8.11,5.15 -13.13,5.45l0 -5.54zm9.22 -28.54l0 0c-2.53,-2.15 -5.72,-3.55 -9.22,-3.83l0 -5.54c5.02,0.3 9.59,2.31 13.13,5.45l-3.91 3.91zm-11.82 -3.83l0 0c-3.5,0.28 -6.69,1.67 -9.22,3.83l-3.91 -3.91c3.54,-3.15 8.11,-5.15 13.13,-5.45l0 5.54zm-14.88 17.48l0 0c0.28,3.5 1.67,6.69 3.83,9.22l-3.91 3.91c-3.14,-3.54 -5.15,-8.11 -5.45,-13.13l5.54 0z"/>
   <path class="fil1" d="M23.21 30.7c1.07,0 1.95,-0.87 1.95,-1.95 0,-1.07 -0.87,-1.95 -1.95,-1.95 -1.08,0 -1.95,0.87 -1.95,1.95 0,1.08 0.87,1.95 1.95,1.95z"/>
   <path class="fil1" d="M23.21 75.53c1.07,0 1.95,-0.88 1.95,-1.95 0,-1.08 -0.87,-1.95 -1.95,-1.95 -1.08,0 -1.95,0.87 -1.95,1.95 0,1.07 0.87,1.95 1.95,1.95z"/>
   <path class="fil1" d="M68.03 71.63c-1.07,0 -1.95,0.87 -1.95,1.95 0,1.07 0.87,1.95 1.95,1.95 1.08,0 1.95,-0.88 1.95,-1.95 0,-1.08 -0.87,-1.95 -1.95,-1.95z"/>
   <path class="fil1" d="M68.03 30.7c1.08,0 1.95,-0.87 1.95,-1.95 0,-1.07 -0.87,-1.95 -1.95,-1.95 -1.07,0 -1.95,0.87 -1.95,1.95 0,1.08 0.87,1.95 1.95,1.95z"/>
  </g>
 </g>
</svg>
