<?xml version="1.0" encoding="UTF-8"?>
<!DOCTYPE svg PUBLIC "-//W3C//DTD SVG 1.1//EN" "http://www.w3.org/Graphics/SVG/1.1/DTD/svg11.dtd">
<!-- Creator: CorelDRAW 2018 (64 Bit) -->
<svg xmlns="http://www.w3.org/2000/svg" xml:space="preserve" width="9.988mm" height="11.2015mm" version="1.1" style="shape-rendering:geometricPrecision; text-rendering:geometricPrecision; image-rendering:optimizeQuality; fill-rule:evenodd; clip-rule:evenodd"
viewBox="0 0 232.88 261.18"
 xmlns:xlink="http://www.w3.org/1999/xlink">
 <defs>
  <style type="text/css">
   <![CDATA[
    .fil1 {fill:none}
    .fil0 {fill:black;fill-rule:nonzero}
   ]]>
  </style>
 </defs>
 <g id="Ebene_x0020_1">
  <metadata id="CorelCorpID_0Corel-Layer"/>
  <path class="fil0" d="M204.1 156.75l-6.96 0 0 31.44 6.96 0 0 -31.44zm-13.94 9.02l-18.84 0 0 13.4 18.84 0 0 -13.4zm-25.59 -21.62c0,-1.73 -1.42,-3.15 -3.15,-3.15l-76.81 0c-1.73,0 -3.15,1.41 -3.15,3.15l0 56.55c0,1.73 1.42,3.14 3.15,3.14l76.81 0c1.74,0 3.15,-1.41 3.15,-3.14l0 -56.55zm-70.61 -9.9l58.12 0 0 -76.64 -58.12 0 0 76.64zm0.42 -83.39l57.28 0 -2.84 -13.49 -51.61 0 -2.83 13.49zm-19.67 114.91l-18.84 0 0 13.4 18.84 0 0 -13.4zm-25.83 -9.02l-6.96 0 0 31.44 6.96 0 0 -31.44zm161.98 -0.42l0 32.26c0,3.5 -2.84,6.34 -6.34,6.34l-7.78 0c-3.5,0 -6.34,-2.85 -6.34,-6.34l0 -2.69 -19.08 0 0 14.79c0,5.46 -4.44,9.9 -9.9,9.9l-76.81 0c-5.46,0 -9.9,-4.44 -9.9,-9.9l0 -14.79 -19.07 0 0 2.69c0,3.5 -2.85,6.34 -6.34,6.34l-7.78 0c-3.5,0 -6.33,-2.85 -6.33,-6.34l0 -32.26c0,-3.5 2.84,-6.34 6.33,-6.34l7.78 0c3.5,0 6.34,2.85 6.34,6.34l0 2.69 19.07 0 0 -14.87c0,-5.46 4.44,-9.9 9.9,-9.9l2.6 0 0 -78.23c0,-0.61 0.13,-1.18 0.31,-1.71 -0.3,-0.86 -0.4,-1.78 -0.2,-2.7l3.31 -15.77c0.63,-3.02 3.29,-5.21 6.3,-5.21l52.18 0c3.01,0 5.66,2.19 6.29,5.21l3.32 15.77c0.2,0.92 0.1,1.84 -0.2,2.7 0.19,0.54 0.31,1.1 0.31,1.71l0 78.23 2.59 0c5.46,0 9.9,4.44 9.9,9.9l0 14.87 19.08 0 0 -2.69c0,-3.5 2.84,-6.34 6.34,-6.34l7.78 0c3.5,0 6.34,2.85 6.34,6.34zm-110.82 -91.79c0,20.92 0,41.85 0,62.78 0,4.35 6.75,4.36 6.75,0 0,-20.93 0,-41.85 0,-62.78 0,-4.36 -6.75,-4.36 -6.75,0zm13.03 0c0,20.92 0,41.85 0,62.78 0,4.35 6.76,4.36 6.76,0 0,-20.93 0,-41.85 0,-62.78 0,-4.36 -6.76,-4.36 -6.76,0zm13.03 0c0,20.92 0,41.85 0,62.78 0,4.35 6.76,4.36 6.76,0 0,-20.93 0,-41.85 0,-62.78 0,-4.36 -6.76,-4.36 -6.76,0zm19.79 0c0,20.92 0,41.85 0,62.78 0,4.36 -6.76,4.35 -6.76,0 0,-20.93 0,-41.85 0,-62.78 0,-4.36 6.76,-4.36 6.76,0z"/>
 </g>
 <g id="Ebene_x0020_1_0">
  <metadata id="CorelCorpID_1Corel-Layer"/>
  <rect class="fil1" y="0" width="232.88" height="261.18"/>
 </g>
</svg>
