<?xml version="1.0" encoding="UTF-8"?>
<!DOCTYPE svg PUBLIC "-//W3C//DTD SVG 1.1//EN" "http://www.w3.org/Graphics/SVG/1.1/DTD/svg11.dtd">
<!-- Creator: CorelDRAW 2018 (64 Bit) -->
<svg xmlns="http://www.w3.org/2000/svg" xml:space="preserve" width="9.988mm" height="11.2025mm" version="1.1" style="shape-rendering:geometricPrecision; text-rendering:geometricPrecision; image-rendering:optimizeQuality; fill-rule:evenodd; clip-rule:evenodd"
viewBox="0 0 60.12 67.43"
 xmlns:xlink="http://www.w3.org/1999/xlink">
 <defs>
  <style type="text/css">
   <![CDATA[
    .fil0 {fill:none}
    .fil1 {fill:black;fill-rule:nonzero}
   ]]>
  </style>
 </defs>
 <g id="Ebene_x0020_1">
  <metadata id="CorelCorpID_0Corel-Layer"/>
  <rect class="fil0" width="60.12" height="67.43"/>
 </g>
 <g id="_x0020_1">
  <metadata id="CorelCorpID_1Corel-Layer"/>
  <g id="_2355853309856">
   <path class="fil1" d="M43.51 57.32l-26.89 0c-0.87,0 -1.58,-0.71 -1.58,-1.58l0 -40.42c0,-0.87 0.71,-1.58 1.58,-1.58l26.89 0c0.87,0 1.58,0.71 1.58,1.58l0 40.42c0,0.87 -0.71,1.58 -1.58,1.58zm-26.58 -1.9l0 0 26.26 0 0 -39.79 -26.26 0 0 39.79z"/>
   <path class="fil1" d="M38.1 57.32l-16.07 0c-0.87,0 -1.58,-0.71 -1.58,-1.58l0 -40.42c0,-0.87 0.71,-1.58 1.58,-1.58l16.07 0c0.87,0 1.58,0.71 1.58,1.58l0 40.42c0,0.87 -0.71,1.58 -1.58,1.58zm-15.75 -1.9l0 0 15.44 0 0 -39.79 -15.44 0 0 39.79z"/>
   <path class="fil1" d="M33.71 51l-7.29 0c-1.19,0 -2.15,-0.97 -2.15,-2.15l0 -3.31c0,-1.19 0.97,-2.15 2.15,-2.15l7.29 0c1.19,0 2.15,0.97 2.15,2.15l0 3.31c0,1.19 -0.97,2.15 -2.15,2.15zm-7.29 -5.71l0 0c-0.14,0 -0.25,0.11 -0.25,0.25l0 3.31c0,0.14 0.11,0.25 0.25,0.25l7.29 0c0.14,0 0.25,-0.11 0.25,-0.25l0 -3.31c0,-0.14 -0.11,-0.25 -0.25,-0.25l-7.29 0z"/>
   <path class="fil1" d="M27.79 41.38l-1.97 0c-0.52,0 -0.95,-0.43 -0.95,-0.95 0,-0.52 0.42,-0.95 0.95,-0.95l1.97 0c0.52,0 0.95,0.42 0.95,0.95 0,0.52 -0.43,0.95 -0.95,0.95z"/>
   <path class="fil1" d="M34.31 41.38l-1.97 0c-0.52,0 -0.95,-0.43 -0.95,-0.95 0,-0.52 0.42,-0.95 0.95,-0.95l1.97 0c0.52,0 0.95,0.42 0.95,0.95 0,0.52 -0.42,0.95 -0.95,0.95z"/>
   <path class="fil1" d="M36.35 15.63l-12.58 0c-0.52,0 -0.95,-0.42 -0.95,-0.95l0 -6.33c0,-0.52 0.42,-0.95 0.95,-0.95l12.58 0c0.52,0 0.95,0.42 0.95,0.95l0 6.33c0,0.52 -0.42,0.95 -0.95,0.95zm-11.63 -1.9l0 0 10.69 0 0 -4.43 -10.69 0 0 4.43z"/>
   <path class="fil1" d="M31.34 12.47l-7.57 0c-0.52,0 -0.95,-0.42 -0.95,-0.95 0,-0.52 0.42,-0.95 0.95,-0.95l7.57 0c0.52,0 0.95,0.43 0.95,0.95 0,0.52 -0.42,0.95 -0.95,0.95z"/>
  </g>
 </g>
</svg>
