<?xml version="1.0" encoding="UTF-8"?>
<!DOCTYPE svg PUBLIC "-//W3C//DTD SVG 1.1//EN" "http://www.w3.org/Graphics/SVG/1.1/DTD/svg11.dtd">
<!-- Creator: CorelDRAW 2018 (64 Bit) -->
<svg xmlns="http://www.w3.org/2000/svg" xml:space="preserve" width="9.988mm" height="11.2025mm" version="1.1" style="shape-rendering:geometricPrecision; text-rendering:geometricPrecision; image-rendering:optimizeQuality; fill-rule:evenodd; clip-rule:evenodd"
viewBox="0 0 74.91 84.02"
 xmlns:xlink="http://www.w3.org/1999/xlink">
 <defs>
  <style type="text/css">
   <![CDATA[
    .fil0 {fill:none}
    .fil1 {fill:#4D4D4D;fill-rule:nonzero}
   ]]>
  </style>
 </defs>
 <g id="Ebene_x0020_1">
  <metadata id="CorelCorpID_0Corel-Layer"/>
  <rect class="fil0" width="74.91" height="84.02"/>
 </g>
 <g id="__x0023_Layer_x0020_2">
  <metadata id="CorelCorpID_1Corel-Layer"/>
  <g id="_2355853331072">
   <path class="fil1" d="M66.4 48.07c-1.29,-3.12 -4.24,-5.35 -8.77,-6.63 -3.72,-1.05 -7.44,-1.15 -10.82,-0.42 -0.86,-2.22 -2.49,-4.07 -4.56,-5.22 0.03,-4.67 2.37,-8.03 4.28,-10.77 2.06,-2.96 4.01,-5.75 1.68,-8.77 -2.27,-2.95 -6.58,-3.13 -10.44,-3.08 -3.87,0.05 -9.09,0.9 -11.96,4.64 -2.06,2.68 -2.51,6.35 -1.35,10.91 0.95,3.74 2.73,7.02 5.05,9.59 -1.36,1.68 -2.19,3.8 -2.25,6.12 -0,0.15 -0,0.29 0,0.44 -4.06,2.31 -8.13,1.96 -11.47,1.68 -3.59,-0.31 -6.99,-0.6 -8.44,2.93 -1.41,3.44 0.58,7.27 2.55,10.59 1.98,3.33 5.33,7.43 10,8.04 0.39,0.05 0.79,0.08 1.18,0.08 2.97,0 5.97,-1.46 8.95,-4.36 2.77,-2.69 4.71,-5.87 5.78,-9.16 0.44,0.07 0.88,0.11 1.33,0.12 0.08,0 0.16,0 0.24,0 1.87,0 3.66,-0.51 5.23,-1.46 4.03,2.37 5.76,6.06 7.19,9.09 1.42,3.03 2.76,5.9 5.96,5.9 0.25,0 0.52,-0.02 0.79,-0.05 3.69,-0.5 6.01,-4.13 7.89,-7.5 1.89,-3.38 3.77,-8.33 1.96,-12.68zm-38.91 -28.96l0 0c2.35,-3.06 6.9,-3.76 10.3,-3.8 0.29,-0 0.59,-0.01 0.88,-0.01 3.1,0 6.32,0.28 7.84,2.26 1.32,1.71 0.36,3.23 -1.74,6.25 -1.88,2.69 -4.34,6.23 -4.64,11.12 -0.81,-0.23 -1.66,-0.36 -2.54,-0.38 -2.49,-0.06 -4.8,0.8 -6.6,2.26 -2.06,-2.3 -3.64,-5.24 -4.49,-8.6 -0.99,-3.9 -0.66,-6.96 0.98,-9.09zm1.04 43.18l0 0c-2.88,2.81 -5.7,4.05 -8.36,3.7 -3.83,-0.5 -6.7,-4.09 -8.44,-7.02 -1.71,-2.88 -3.45,-6.15 -2.41,-8.68 0.57,-1.39 1.63,-1.78 3.46,-1.78 0.79,0 1.72,0.07 2.82,0.17 3.27,0.28 7.57,0.65 11.95,-1.54 0.42,1.68 1.27,3.24 2.5,4.53 1.05,1.1 2.31,1.93 3.69,2.46 -0.97,2.93 -2.72,5.76 -5.2,8.18zm8.65 -9.64l0 0c-2.13,-0.05 -4.12,-0.92 -5.59,-2.47 -1.47,-1.54 -2.26,-3.57 -2.21,-5.7 0.1,-4.34 3.66,-7.8 7.98,-7.8 0.06,0 0.12,0 0.19,0 4.4,0.1 7.9,3.76 7.8,8.17 -0.05,2.13 -0.92,4.12 -2.47,5.59 -1.54,1.47 -3.56,2.26 -5.7,2.21zm25.39 7.06l0 0c-1.63,2.92 -3.6,6.07 -6.32,6.43 -2.13,0.29 -2.98,-1.3 -4.54,-4.63 -1.39,-2.97 -3.23,-6.88 -7.31,-9.58 1.92,-1.86 3.02,-4.36 3.08,-7.04 0.01,-0.62 -0.03,-1.22 -0.12,-1.81 3.02,-0.63 6.35,-0.53 9.69,0.41 3.87,1.09 6.35,2.91 7.38,5.39 1.48,3.56 -0.19,7.85 -1.86,10.82z"/>
   <path class="fil1" d="M37.47 39.88l-0.1 -0c-2.58,0 -4.72,2.1 -4.78,4.67 -0.01,0.59 0.45,1.08 1.04,1.09 0.01,0 0.02,0 0.02,0 0.58,0 1.05,-0.46 1.07,-1.04 0.03,-1.43 1.22,-2.59 2.63,-2.59l0.09 0c0,0 0.01,0 0.01,0 0.58,0 1.06,-0.47 1.07,-1.05 0.01,-0.59 -0.47,-1.07 -1.05,-1.08z"/>
  </g>
 </g>
</svg>
