<?xml version="1.0" encoding="UTF-8"?>
<svg id="Ebene_2" data-name="Ebene 2" xmlns="http://www.w3.org/2000/svg" viewBox="0 0 50.23 54.02">
  <defs>
    <style>
      .cls-1 {
        fill: #4d4d4d;
      }
    </style>
  </defs>
  <g id="Layer_2" data-name="Layer 2">
    <g>
      <path class="cls-1" d="M25.11,23.61c-3.92,0-7.1,3.18-7.1,7.1,0,.57,.46,1.03,1.03,1.03s1.03-.46,1.03-1.03c0-2.78,2.26-5.04,5.04-5.04,.57,0,1.03-.46,1.03-1.03s-.46-1.03-1.03-1.03Z"/>
      <path class="cls-1" d="M5.95,28.04c-.57,0-1.03,.46-1.03,1.03v3.29c0,.57,.46,1.03,1.03,1.03s1.03-.46,1.03-1.03v-3.29c0-.57-.46-1.03-1.03-1.03Z"/>
      <path class="cls-1" d="M44.28,33.39c.57,0,1.03-.46,1.03-1.03v-3.29c0-.57-.46-1.03-1.03-1.03s-1.03,.46-1.03,1.03v3.29c0,.57,.46,1.03,1.03,1.03Z"/>
      <path class="cls-1" d="M49.2,23.84h-14.36c-1.08-1.53-2.48-2.76-4.08-3.62v-4.41h.39c.57,0,1.03-.46,1.03-1.03s-.46-1.03-1.03-1.03h-2.48v-4.27h7.5c.57,0,1.03-.46,1.03-1.03v-2.4c0-2.26-1.84-4.09-4.09-4.09h-5.2c-.42-1.15-1.52-1.97-2.81-1.97s-2.39,.82-2.81,1.97h-5.2c-2.26,0-4.09,1.83-4.09,4.09v2.4c0,.57,.46,1.03,1.03,1.03h7.5v4.27h-2.48c-.57,0-1.03,.46-1.03,1.03s.46,1.03,1.03,1.03h.39v4.41c-1.6,.86-3,2.09-4.08,3.62H1.03c-.57,0-1.03,.46-1.03,1.03v11.69c0,.57,.46,1.03,1.03,1.03H15.38c1.21,1.71,2.81,3.04,4.65,3.9-1.13,1.94-2.04,3.95-2.04,5.4,0,3.93,3.19,7.12,7.12,7.12s7.12-3.19,7.12-7.12c0-1.45-.91-3.46-2.04-5.4,1.83-.86,3.44-2.19,4.65-3.9h14.36c.57,0,1.03-.46,1.03-1.03v-11.69c0-.57-.46-1.03-1.03-1.03ZM15.07,6.06c0-1.12,.91-2.04,2.03-2.04h16.02c1.12,0,2.03,.91,2.03,2.04v1.37H15.07v-1.37Zm8.53,3.43h3.02v4.27h-3.02v-4.27Zm-2.08,6.33h7.19v3.53c-1.14-.36-2.35-.55-3.59-.55s-2.45,.19-3.59,.55v-3.53Zm3.59,36.14c-2.79,0-5.06-2.27-5.06-5.06,0-1.94,2.84-6.32,5.06-9.25,2.22,2.93,5.06,7.31,5.06,9.25,0,2.79-2.27,5.06-5.06,5.06Zm23.05-16.43h-13.87c-.35,0-.68,.18-.87,.48-1.07,1.67-2.58,2.95-4.32,3.72-1.43-2.19-2.88-4.01-3.19-4.4-.2-.24-.49-.38-.8-.38s-.61,.14-.8,.38c-.31,.38-1.76,2.2-3.19,4.4-1.75-.77-3.26-2.05-4.33-3.72-.19-.3-.52-.48-.87-.48H2.06v-9.63H15.93c.35,0,.68-.18,.87-.47,1.82-2.86,4.93-4.56,8.31-4.56s6.49,1.71,8.31,4.56c.19,.3,.52,.47,.87,.47h13.87v9.63Z"/>
    </g>
  </g>
</svg>