<?xml version="1.0" encoding="UTF-8"?>
<!DOCTYPE svg PUBLIC "-//W3C//DTD SVG 1.1//EN" "http://www.w3.org/Graphics/SVG/1.1/DTD/svg11.dtd">
<!-- Creator: CorelDRAW 2018 (64 Bit) -->
<svg xmlns="http://www.w3.org/2000/svg" xml:space="preserve" width="21.8722mm" height="22.5778mm" version="1.1" style="shape-rendering:geometricPrecision; text-rendering:geometricPrecision; image-rendering:optimizeQuality; fill-rule:evenodd; clip-rule:evenodd"
viewBox="0 0 2287.01 2360.79"
 xmlns:xlink="http://www.w3.org/1999/xlink">
 <defs>
  <style type="text/css">
   <![CDATA[
    .str0 {stroke:#4C4B4B;stroke-width:73.78;stroke-linecap:round;stroke-linejoin:round;stroke-miterlimit:10}
    .fil0 {fill:none;fill-rule:nonzero}
   ]]>
  </style>
 </defs>
 <g id="Ebene_x0020_1">
  <metadata id="CorelCorpID_0Corel-Layer"/>
  <polyline class="fil0 str0" points="1696.82,811.52 1918.14,811.52 1436.58,36.89 959.07,811.52 1291.06,811.52 "/>
  <polyline class="fil0 str0" points="1143.51,1364.83 774.63,1364.83 1117.46,811.52 "/>
  <polyline class="fil0 str0" points="1844.37,1364.83 2102.58,1364.83 1756.87,811.52 "/>
  <polyline class="fil0 str0" points="1623.04,2323.9 1623.04,1918.14 2250.12,1918.14 1918.14,1364.83 "/>
  <polyline class="fil0 str0" points="959.07,1364.83 627.08,1918.14 1254.17,1918.14 1254.17,2323.9 "/>
  <line class="fil0 str0" x1="1364.83" y1="1918.14" x2="1143.51" y2= "1918.14" />
  <polyline class="fil0 str0" points="901.38,331.94 772.6,110.66 368.88,811.52 627.08,811.52 "/>
  <polyline class="fil0 str0" points="479.53,1364.83 184.44,1364.83 527.27,811.52 "/>
  <line class="fil0 str0" x1="663.97" y1="1918.14" x2="669.24" y2= "2323.9" />
  <polyline class="fil0 str0" points="368.88,1364.83 36.89,1918.14 331.99,1918.14 "/>
  <line class="fil0 str0" x1="295.1" y1="2323.9" x2="1844.37" y2= "2323.9" />
 </g>
</svg>
