<?xml version="1.0" encoding="UTF-8"?>
<!DOCTYPE svg PUBLIC "-//W3C//DTD SVG 1.1//EN" "http://www.w3.org/Graphics/SVG/1.1/DTD/svg11.dtd">
<!-- Creator: CorelDRAW 2018 (64 Bit) -->
<svg xmlns="http://www.w3.org/2000/svg" xml:space="preserve" width="22.1401mm" height="17.7029mm" version="1.1" style="shape-rendering:geometricPrecision; text-rendering:geometricPrecision; image-rendering:optimizeQuality; fill-rule:evenodd; clip-rule:evenodd"
viewBox="0 0 120.01 95.96"
 xmlns:xlink="http://www.w3.org/1999/xlink">
 <defs>
  <style type="text/css">
   <![CDATA[
    .fil0 {fill:#333333;fill-rule:nonzero}
   ]]>
  </style>
 </defs>
 <g id="Ebene_x0020_1">
  <metadata id="CorelCorpID_0Corel-Layer"/>
  <path class="fil0" d="M108.31 75.63c-0.58,0 -1.17,-0.21 -1.63,-0.63 -1,-0.9 -1.08,-2.44 -0.18,-3.44 2.73,-3.02 4.85,-6.45 6.34,-10.22 0.49,-1.25 1.9,-1.87 3.16,-1.38 1.25,0.49 1.87,1.91 1.38,3.16 -1.69,4.32 -4.13,8.25 -7.25,11.71 -0.49,0.53 -1.15,0.8 -1.81,0.8z"/>
  <path class="fil0" d="M117.24 56.48c-0.11,0 -0.22,-0.01 -0.33,-0.03 -1.34,-0.18 -2.26,-1.41 -2.08,-2.74 0.21,-1.53 0.31,-3.08 0.31,-4.62 0,-1.35 1.09,-2.44 2.44,-2.44 1.35,0 2.44,1.09 2.44,2.44 0,1.77 -0.12,3.55 -0.36,5.29 -0.17,1.22 -1.21,2.11 -2.41,2.11z"/>
  <path class="fil0" d="M116.84 43.55c-1.14,0 -2.15,-0.8 -2.39,-1.95l-0.11 -0.61c-0.03,-0.16 -0.05,-0.22 -0.15,-0.59 -0.36,-1.3 0.4,-2.64 1.69,-3 1.29,-0.35 2.64,0.4 3,1.7 0.18,0.65 0.2,0.76 0.25,1.05l0.09 0.48c0.27,1.32 -0.58,2.61 -1.9,2.87 -0.16,0.03 -0.33,0.05 -0.49,0.05z"/>
  <path class="fil0" d="M116.28 31.82c-6.35,-13.28 -19.95,-21.87 -34.67,-21.87l-31.4 0 5.93 -5.76c0.96,-0.94 0.99,-2.49 0.05,-3.45 -0.94,-0.97 -2.48,-0.99 -3.45,-0.05l-16.87 16.41c-0.01,0.01 -0.01,0.02 -0.02,0.03 -0.01,0.01 -0.02,0.02 -0.03,0.02 -0.11,0.11 -0.16,0.25 -0.25,0.38 -0.09,0.14 -0.2,0.26 -0.26,0.41 -0.06,0.15 -0.07,0.3 -0.09,0.45 -0.03,0.16 -0.08,0.3 -0.08,0.46 0,0.16 0.05,0.3 0.08,0.46 0.03,0.16 0.03,0.31 0.09,0.45 0.06,0.15 0.17,0.28 0.26,0.41 0.08,0.13 0.14,0.27 0.25,0.38 0.01,0.01 0.02,0.01 0.03,0.02 0.01,0 0.01,0.02 0.02,0.03l16.87 16.41c0.47,0.46 1.09,0.69 1.7,0.69 0.64,0 1.27,-0.25 1.75,-0.74 0.94,-0.97 0.92,-2.51 -0.05,-3.45l-5.98 -5.81 26.04 0c13.42,0 24.33,9.33 24.33,20.79l0 0.47c0,5.75 -2.68,11.1 -7.57,15.06 -1.04,0.85 -1.2,2.38 -0.35,3.43 0.48,0.59 1.18,0.9 1.89,0.9 0.54,0 1.08,-0.18 1.53,-0.55 5.95,-4.84 9.37,-11.71 9.37,-18.84l0 -0.47c0,-14.15 -13.1,-25.67 -29.21,-25.67l-31.05 0 -4.09 -3.97 4.13 -4.02 36.42 0c12.85,0 24.74,7.5 30.28,19.09 0.42,0.88 1.29,1.39 2.2,1.39 0.35,0 0.71,-0.07 1.05,-0.23 1.21,-0.58 1.73,-2.04 1.15,-3.25z"/>
  <path class="fil0" d="M4.91 36.18c-0.3,0 -0.6,-0.05 -0.89,-0.17 -1.25,-0.49 -1.87,-1.91 -1.38,-3.16 1.7,-4.32 4.14,-8.25 7.26,-11.71 0.9,-1 2.44,-1.08 3.44,-0.17 1,0.9 1.08,2.44 0.18,3.44 -2.73,3.01 -4.85,6.45 -6.34,10.22 -0.38,0.96 -1.3,1.54 -2.27,1.54z"/>
  <path class="fil0" d="M2.43 49.32c-1.35,0 -2.43,-1.09 -2.43,-2.44 0,-1.76 0.12,-3.55 0.36,-5.29 0.18,-1.34 1.42,-2.25 2.75,-2.08 1.33,0.18 2.27,1.41 2.09,2.74 -0.21,1.53 -0.32,3.08 -0.32,4.62 0,1.35 -1.09,2.44 -2.44,2.44z"/>
  <path class="fil0" d="M3.47 58.66c-1.07,0 -2.05,-0.71 -2.35,-1.79 -0.18,-0.65 -0.2,-0.76 -0.25,-1.04l-0.09 -0.48c-0.28,-1.32 0.57,-2.61 1.89,-2.88 1.32,-0.26 2.61,0.58 2.88,1.9l0.12 0.6c0.03,0.17 0.04,0.22 0.15,0.6 0.36,1.3 -0.4,2.64 -1.7,3 -0.22,0.06 -0.44,0.09 -0.66,0.09z"/>
  <path class="fil0" d="M84.8 77.58c0.03,-0.16 0.09,-0.3 0.09,-0.46 0,-0.16 -0.06,-0.31 -0.09,-0.46 -0.03,-0.15 -0.04,-0.31 -0.09,-0.45 -0.06,-0.15 -0.17,-0.28 -0.26,-0.41 -0.08,-0.12 -0.14,-0.27 -0.25,-0.38 -0.01,-0.01 -0.02,-0.01 -0.03,-0.02 -0.01,-0 -0.01,-0.02 -0.02,-0.03l-16.87 -16.41c-0.96,-0.93 -2.51,-0.92 -3.45,0.05 -0.94,0.97 -0.92,2.51 0.05,3.45l5.98 5.81 -26.04 0c-13.42,0 -24.33,-9.33 -24.33,-20.79l0 -0.47c0,-5.74 2.69,-11.1 7.57,-15.06 1.05,-0.85 1.2,-2.38 0.35,-3.43 -0.84,-1.04 -2.38,-1.2 -3.43,-0.35 -5.96,4.85 -9.37,11.72 -9.37,18.85l0 0.47c0,14.15 13.1,25.67 29.21,25.67l31.05 0 4.09 3.97 -4.13 4.02 -36.42 0c-12.85,0 -24.74,-7.49 -30.27,-19.09 -0.58,-1.21 -2.04,-1.73 -3.25,-1.15 -1.21,0.58 -1.73,2.04 -1.15,3.25 6.35,13.29 19.96,21.87 34.67,21.87l31.4 0 -5.93 5.76c-0.96,0.94 -0.99,2.49 -0.05,3.45 0.48,0.5 1.11,0.74 1.75,0.74 0.62,0 1.23,-0.23 1.7,-0.69l16.87 -16.4c0.01,-0.01 0.01,-0.01 0.01,-0.02 0.02,-0.01 0.03,-0.02 0.04,-0.03 0.11,-0.11 0.16,-0.25 0.25,-0.38 0.09,-0.14 0.2,-0.26 0.26,-0.41 0.06,-0.15 0.07,-0.3 0.09,-0.45z"/>
 </g>
</svg>
