<?xml version="1.0" encoding="UTF-8"?>
<svg id="Ebene_2" data-name="Ebene 2" xmlns="http://www.w3.org/2000/svg" viewBox="0 0 50.17 41.7">
  <defs>
    <style>
      .cls-1 {
        fill: #4d4d4d;
      }
    </style>
  </defs>
  <g id="Layer_2" data-name="Layer 2">
    <g>
      <path class="cls-1" d="M25.08,6.44c-3.43,0-6.23,2.79-6.23,6.23v4.39h-1.61c-.57,0-1.03,.46-1.03,1.03v12.49c0,.57,.46,1.03,1.03,1.03h15.67c.57,0,1.03-.46,1.03-1.03v-12.49c0-.57-.46-1.03-1.03-1.03h-1.61v-4.39c0-3.44-2.79-6.23-6.23-6.23Zm-4.17,6.23c0-2.3,1.87-4.17,4.17-4.17s4.17,1.87,4.17,4.17v4.39h-8.34v-4.39Zm10.98,16.88h-13.62v-10.43h13.62v10.43Z"/>
      <path class="cls-1" d="M25.08,22.08c-.57,0-1.03,.46-1.03,1.03v2.44c0,.57,.46,1.03,1.03,1.03s1.03-.46,1.03-1.03v-2.44c0-.57-.46-1.03-1.03-1.03Z"/>
      <path class="cls-1" d="M49.14,21.88c.57,0,1.03-.46,1.03-1.03s-.46-1.03-1.03-1.03h-3.24c-.04-.84-.13-1.68-.27-2.52h3.51c.57,0,1.03-.46,1.03-1.03s-.46-1.03-1.03-1.03h-3.97c-.59-2.13-1.53-4.19-2.82-6.09-.32-.47-.96-.59-1.43-.27-.47,.32-.59,.96-.27,1.43,1.05,1.55,1.84,3.22,2.38,4.94h-2.35c-.57,0-1.03,.46-1.03,1.03s.46,1.03,1.03,1.03h2.87c.16,.83,.26,1.67,.31,2.52h-3.17c-.57,0-1.03,.46-1.03,1.03s.46,1.03,1.03,1.03h3.18c-.05,.84-.15,1.68-.31,2.52h-2.86c-.57,0-1.03,.46-1.03,1.03s.46,1.03,1.03,1.03h2.35c-.88,2.83-2.44,5.48-4.65,7.68-6.37,6.37-16.39,7.32-23.83,2.27-.47-.32-1.11-.2-1.43,.27-.32,.47-.2,1.11,.27,1.43,3.55,2.41,7.62,3.59,11.68,3.59,5.38,0,10.73-2.08,14.76-6.11,2.61-2.61,4.4-5.77,5.33-9.14h3.98c.57,0,1.03-.46,1.03-1.03s-.46-1.03-1.03-1.03h-3.51c.14-.83,.24-1.67,.28-2.52h3.23Z"/>
      <path class="cls-1" d="M35.63,5.29c.47,.32,1.11,.2,1.43-.27,.32-.47,.2-1.11-.27-1.43C28.53-2.02,17.41-.96,10.34,6.11c-2.61,2.61-4.4,5.77-5.34,9.14H1.03c-.57,0-1.03,.46-1.03,1.03s.46,1.03,1.03,1.03h3.51c-.14,.83-.24,1.67-.28,2.52H1.03c-.57,0-1.03,.46-1.03,1.03s.46,1.03,1.03,1.03h3.23c.04,.84,.13,1.68,.27,2.52H1.03c-.57,0-1.03,.46-1.03,1.03s.46,1.03,1.03,1.03h3.97c.59,2.13,1.53,4.19,2.82,6.09,.2,.29,.52,.45,.85,.45,.2,0,.4-.06,.58-.18,.47-.32,.59-.96,.27-1.43-1.05-1.55-1.84-3.22-2.38-4.94h2.36c.57,0,1.03-.46,1.03-1.03s-.46-1.03-1.03-1.03h-2.87c-.16-.83-.26-1.67-.31-2.52h3.18c.57,0,1.03-.46,1.03-1.03s-.46-1.03-1.03-1.03h-3.18c.05-.84,.15-1.68,.31-2.52h2.87c.57,0,1.03-.46,1.03-1.03s-.46-1.03-1.03-1.03h-2.35c.88-2.83,2.44-5.47,4.65-7.68C18.17,1.19,28.19,.24,35.63,5.29Z"/>
    </g>
  </g>
</svg>