<?xml version="1.0" encoding="UTF-8"?>
<!DOCTYPE svg PUBLIC "-//W3C//DTD SVG 1.1//EN" "http://www.w3.org/Graphics/SVG/1.1/DTD/svg11.dtd">
<!-- Creator: CorelDRAW 2018 (64 Bit) -->
<svg xmlns="http://www.w3.org/2000/svg" xml:space="preserve" width="9.988mm" height="11.2025mm" version="1.1" style="shape-rendering:geometricPrecision; text-rendering:geometricPrecision; image-rendering:optimizeQuality; fill-rule:evenodd; clip-rule:evenodd"
viewBox="0 0 60.12 67.43"
 xmlns:xlink="http://www.w3.org/1999/xlink">
 <defs>
  <style type="text/css">
   <![CDATA[
    .fil0 {fill:none}
    .fil1 {fill:black;fill-rule:nonzero}
   ]]>
  </style>
 </defs>
 <g id="Ebene_x0020_1">
  <metadata id="CorelCorpID_0Corel-Layer"/>
  <rect class="fil0" width="60.12" height="67.43"/>
 </g>
 <g id="_x0020_1">
  <metadata id="CorelCorpID_1Corel-Layer"/>
  <g id="_2392232053568">
   <path class="fil1" d="M40.9 52.61l-21.68 0c-2.62,0 -4.75,-2.13 -4.75,-4.75l0 -34.66c0,-2.62 2.13,-4.75 4.75,-4.75l21.68 0c2.62,0 4.75,2.13 4.75,4.75l0 34.66c0,2.62 -2.13,4.75 -4.75,4.75zm-21.68 -42.26l0 0c-1.57,0 -2.85,1.28 -2.85,2.85l0 34.66c0,1.57 1.28,2.85 2.85,2.85l21.68 0c1.57,0 2.85,-1.28 2.85,-2.85l0 -34.66c0,-1.57 -1.28,-2.85 -2.85,-2.85l-21.68 0z"/>
   <path class="fil1" d="M35.51 57.66l-11.37 0c-1.31,0 -2.45,-0.89 -2.76,-2.16l-0.91 -3.61c-0.07,-0.28 -0.01,-0.59 0.17,-0.82 0.18,-0.23 0.46,-0.37 0.75,-0.37l17.33 0c0.31,0 0.6,0.15 0.78,0.41 0.18,0.26 0.22,0.58 0.11,0.87l-1.44 3.82c-0.42,1.1 -1.49,1.85 -2.67,1.85zm-12.9 -5.05l0 0 0.61 2.43c0.11,0.42 0.48,0.72 0.92,0.72l11.37 0c0.39,0 0.75,-0.25 0.89,-0.62l0.95 -2.54 -14.74 0z"/>
   <path class="fil1" d="M30.06 44.25c-1.19,0 -2.39,-0.45 -3.3,-1.36 -1.82,-1.82 -1.82,-4.78 0,-6.6 0.88,-0.88 2.05,-1.37 3.3,-1.37 1.25,0 2.42,0.49 3.3,1.37 1.82,1.82 1.82,4.78 0,6.6 -0.91,0.91 -2.1,1.36 -3.3,1.36zm0 -7.43l0 0c-0.71,0 -1.42,0.27 -1.96,0.81 -1.08,1.08 -1.08,2.83 0,3.91 0.52,0.52 1.22,0.81 1.96,0.81 0.74,0 1.43,-0.29 1.96,-0.81 1.08,-1.08 1.08,-2.83 0,-3.91 -0.54,-0.54 -1.25,-0.81 -1.96,-0.81z"/>
   <path class="fil1" d="M30.06 47.36c-1.99,0 -3.98,-0.76 -5.5,-2.27 -3.03,-3.03 -3.03,-7.96 0,-10.99 1.47,-1.47 3.42,-2.28 5.5,-2.28 2.08,0 4.03,0.81 5.5,2.28 1.47,1.47 2.28,3.42 2.28,5.5 0,2.08 -0.81,4.03 -2.28,5.5 -1.52,1.52 -3.51,2.27 -5.5,2.27zm0 -13.64l0 0c-1.57,0 -3.04,0.61 -4.15,1.72 -2.29,2.29 -2.29,6.02 0,8.31 2.29,2.29 6.02,2.29 8.31,0 1.11,-1.11 1.72,-2.58 1.72,-4.15 0,-1.57 -0.61,-3.04 -1.72,-4.15 -1.11,-1.11 -2.58,-1.72 -4.15,-1.72z"/>
   <path class="fil1" d="M44.7 16.21l-29.28 0c-0.52,0 -0.95,-0.43 -0.95,-0.95 0,-0.52 0.43,-0.95 0.95,-0.95l29.28 0c0.52,0 0.95,0.42 0.95,0.95 0,0.52 -0.42,0.95 -0.95,0.95z"/>
   <path class="fil1" d="M38.61 22.14l-17.09 0c-0.52,0 -0.95,-0.42 -0.95,-0.95 0,-0.52 0.42,-0.95 0.95,-0.95l17.09 0c0.52,0 0.95,0.42 0.95,0.95 0,0.52 -0.42,0.95 -0.95,0.95z"/>
  </g>
 </g>
</svg>
