<?xml version="1.0" encoding="UTF-8"?>
<!DOCTYPE svg PUBLIC "-//W3C//DTD SVG 1.1//EN" "http://www.w3.org/Graphics/SVG/1.1/DTD/svg11.dtd">
<!-- Creator: CorelDRAW 2018 (64 Bit) -->
<svg xmlns="http://www.w3.org/2000/svg" xml:space="preserve" width="21.1667mm" height="22.5778mm" version="1.1" style="shape-rendering:geometricPrecision; text-rendering:geometricPrecision; image-rendering:optimizeQuality; fill-rule:evenodd; clip-rule:evenodd"
viewBox="0 0 532.77 568.29"
 xmlns:xlink="http://www.w3.org/1999/xlink">
 <defs>
  <style type="text/css">
   <![CDATA[
    .str1 {stroke:#4C4B4B;stroke-width:17.76;stroke-linejoin:round;stroke-miterlimit:10}
    .str0 {stroke:#4C4B4B;stroke-width:17.76;stroke-linecap:round;stroke-linejoin:round;stroke-miterlimit:10}
    .fil0 {fill:none;fill-rule:nonzero}
   ]]>
  </style>
 </defs>
 <g id="Ebene_x0020_1">
  <metadata id="CorelCorpID_0Corel-Layer"/>
  <path class="fil0 str0" d="M146.77 115.43l-31.33 62.16 0 346.3c0,19.62 15.9,35.52 35.52,35.52l337.42 0c19.62,0 35.52,-15.9 35.52,-35.52l0 -346.3 -106.55 -168.71 -195.35 0 -17.76 25.16"/>
  <path class="fil0 str1" d="M355.18 106.55c0,19.62 -15.91,35.52 -35.52,35.52 -19.61,0 -35.52,-15.9 -35.52,-35.52 0,-19.62 15.91,-35.52 35.52,-35.52 19.62,0 35.52,15.9 35.52,35.52z"/>
  <path class="fil0 str0" d="M69.45 191.29c-36.7,-12.07 -60.57,-31.67 -60.57,-53.82 0,-36.68 65.59,-66.44 146.51,-66.44 80.92,0 146.51,29.76 146.51,66.44"/>
  <path class="fil0 str0" d="M204.23 488.38c18.26,-64.03 62.3,-131.36 115.43,-168.71"/>
  <path class="fil0 str0" d="M213.11 443.98c-32.1,-57.78 -27.87,-115.68 26.64,-159.83 57.23,-46.35 142.14,-57.42 213.11,-62.16 -12.84,6.42 -23.33,28.95 -26.64,35.52 -23.89,47.36 1.77,97.98 -18.86,144.65 -21.43,48.45 -91.76,72.34 -140.97,59.58"/>
 </g>
</svg>
