<?xml version="1.0" encoding="UTF-8"?>
<!DOCTYPE svg PUBLIC "-//W3C//DTD SVG 1.1//EN" "http://www.w3.org/Graphics/SVG/1.1/DTD/svg11.dtd">
<!-- Creator: CorelDRAW 2018 (64 Bit) -->
<svg xmlns="http://www.w3.org/2000/svg" xml:space="preserve" width="9.988mm" height="11.2015mm" version="1.1" style="shape-rendering:geometricPrecision; text-rendering:geometricPrecision; image-rendering:optimizeQuality; fill-rule:evenodd; clip-rule:evenodd"
viewBox="0 0 174.64 195.85"
 xmlns:xlink="http://www.w3.org/1999/xlink">
 <defs>
  <style type="text/css">
   <![CDATA[
    .fil1 {fill:none}
    .fil0 {fill:black;fill-rule:nonzero}
   ]]>
  </style>
 </defs>
 <g id="Ebene_x0020_1">
  <metadata id="CorelCorpID_0Corel-Layer"/>
  <path class="fil0" d="M77.5 107.02c-9.54,0 -19.09,0 -28.64,0 -3.26,0 -3.26,-5.06 0,-5.06 9.56,0 19.1,0 28.64,0 3.26,0 3.26,5.06 0,5.06zm0 -13.05c-9.54,0 -19.09,0 -28.64,0 -3.26,0 -3.26,-5.06 0,-5.06 9.56,0 19.1,0 28.64,0 3.26,0 3.26,5.06 0,5.06zm0 -13.05c-9.54,0 -19.09,0 -28.64,0 -3.26,0 -3.26,-5.06 0,-5.06 9.56,0 19.1,0 28.64,0 3.26,0 3.26,5.06 0,5.06zm65.66 16.04l-37.74 2.23 0 -15.51 37.74 2.23 0 11.06zm-42.8 7.51c0,1.23 -0.99,2.22 -2.21,2.22l-5.76 0 0 -30.52 5.76 0c1.22,0 2.21,0.99 2.21,2.22l0 26.08zm-13.04 -33.36l0 40.89c0,3.69 -3,6.7 -6.7,6.7l-34.78 0c-3.69,0 -6.7,-3.01 -6.7,-6.7l0 -41.13c0,-3.69 3.01,-6.7 6.7,-6.7l34.78 0c3.7,0 6.7,3.01 6.7,6.7l0 0.25zm-0.55 64.02l-50.19 0 12.55 -11.36 25.1 0 12.55 11.36zm5.8 16.88l-61.4 0 0 -11.82 61.4 0 0 11.82zm-58.5 -49.39l-12.22 0 0 -22.37 12.22 0 0 22.37zm110 -21.72l-38.65 -2.29 0 -0.22c0,-4.02 -3.27,-7.28 -7.28,-7.28l-5.76 0 0 -0.25c0,-6.48 -5.29,-11.76 -11.77,-11.76l-34.78 0c-6.49,0 -11.77,5.28 -11.77,11.76l0 4.32 -12.85 0c-2.44,0 -4.43,1.99 -4.43,4.43l0 23.63c0,2.44 1.98,4.43 4.43,4.43l12.85 0 0 4.32c0,5.22 3.42,9.66 8.14,11.19l-14.6 13.22 0 0.01c-0.92,0.87 -1.51,2.09 -1.51,3.46l0 12.44c0,2.62 2.13,4.75 4.75,4.75l62.02 0c2.62,0 4.75,-2.13 4.75,-4.75l0 -12.44c0,-1.97 -1.2,-3.66 -2.92,-4.38l-13.01 -11.79c5.98,-0.55 10.69,-5.6 10.69,-11.71l0 -0.25 5.76 0c4.01,0 7.28,-3.26 7.28,-7.28l0 -0.21 38.65 -2.29 0 0c2.33,-0.14 4.15,-2.07 4.15,-4.4l0 -12.27c0,-2.34 -1.82,-4.27 -4.15,-4.41z"/>
 </g>
 <g id="Ebene_x0020_1_0">
  <metadata id="CorelCorpID_1Corel-Layer"/>
  <rect class="fil1" y="0" width="174.64" height="195.85"/>
 </g>
</svg>
