<?xml version="1.0" encoding="UTF-8"?>
<!DOCTYPE svg PUBLIC "-//W3C//DTD SVG 1.1//EN" "http://www.w3.org/Graphics/SVG/1.1/DTD/svg11.dtd">
<!-- Creator: CorelDRAW 2018 (64 Bit) -->
<svg xmlns="http://www.w3.org/2000/svg" xml:space="preserve" width="9.988mm" height="11.2025mm" version="1.1" style="shape-rendering:geometricPrecision; text-rendering:geometricPrecision; image-rendering:optimizeQuality; fill-rule:evenodd; clip-rule:evenodd"
viewBox="0 0 272.86 306.04"
 xmlns:xlink="http://www.w3.org/1999/xlink">
 <defs>
  <style type="text/css">
   <![CDATA[
    .fil0 {fill:none}
    .fil1 {fill:#4D4D4D;fill-rule:nonzero}
   ]]>
  </style>
 </defs>
 <g id="Ebene_x0020_1">
  <metadata id="CorelCorpID_0Corel-Layer"/>
  <rect class="fil0" width="272.86" height="306.04"/>
 </g>
 <g id="__x0023_Layer_x0020_2">
  <metadata id="CorelCorpID_1Corel-Layer"/>
  <path class="fil1" d="M228.32 127.77c-4.37,-3.3 -9.61,-4.29 -15.16,-2.87l-32.46 8.3 49.62 -32.88c0.99,-0.65 1.62,-1.72 1.72,-2.9 0.1,-1.18 -0.34,-2.34 -1.2,-3.16 -2.89,-2.73 -28.8,-26.65 -47.3,-24.06 -5.43,0.76 -9.83,3.76 -12.75,8.68l-17.08 28.83 11.84 -58.34c0.24,-1.16 -0.07,-2.37 -0.83,-3.28 -0.76,-0.9 -1.89,-1.42 -3.08,-1.38 -3.98,0.11 -39.19,1.5 -50.46,16.43 -3.3,4.37 -4.29,9.61 -2.87,15.16l8.3 32.46 -32.88 -49.62c-0.65,-0.99 -1.72,-1.62 -2.9,-1.73 -1.18,-0.1 -2.34,0.34 -3.16,1.2 -2.73,2.89 -26.65,28.77 -24.07,47.29 0.76,5.43 3.76,9.83 8.69,12.75l28.82 17.08 -58.34 -11.84c-1.16,-0.23 -2.36,0.07 -3.27,0.83 -0.91,0.76 -1.42,1.9 -1.38,3.08 0.11,3.98 1.5,39.19 16.43,50.46 3.08,2.32 6.59,3.5 10.33,3.5 1.57,0 3.19,-0.21 4.83,-0.63l32.46 -8.3 -49.62 32.88c-0.99,0.65 -1.62,1.72 -1.72,2.9 -0.1,1.18 0.34,2.34 1.2,3.16 2.74,2.6 26.18,24.26 44.39,24.26 0.98,0 1.95,-0.06 2.9,-0.19 5.43,-0.76 9.83,-3.76 12.75,-8.68l17.08 -28.83 -11.84 58.34c-0.24,1.16 0.07,2.37 0.83,3.27 0.74,0.88 1.83,1.39 2.98,1.39 0.04,0 0.07,-0 0.11,-0 3.98,-0.11 39.19,-1.5 50.46,-16.43 3.3,-4.37 4.29,-9.61 2.88,-15.16l-8.3 -32.46 32.88 49.63c0.65,0.99 1.72,1.62 2.9,1.72 0.11,0.01 0.22,0.01 0.34,0.01 1.06,0 2.08,-0.43 2.82,-1.21 2.73,-2.89 26.65,-28.77 24.06,-47.3 -0.76,-5.43 -3.76,-9.83 -8.68,-12.75l-28.83 -17.08 58.34 11.84c0.25,0.05 0.51,0.08 0.77,0.08 0.91,0 1.79,-0.32 2.5,-0.91 0.9,-0.76 1.42,-1.9 1.38,-3.08 -0.11,-3.98 -1.5,-39.19 -16.43,-50.46zm-50.84 -44.93l0 0c1.74,-2.94 4.01,-4.51 7.14,-4.95 10.85,-1.53 28.11,10.96 37.21,18.73l-55.28 36.63c-3.1,-4.71 -7.26,-8.65 -12.15,-11.47l23.08 -38.95zm-40.4 98.45l0 0c-0.22,0 -0.44,0.01 -0.66,0.01 -15.29,0 -27.91,-12.26 -28.26,-27.62 -0.17,-7.55 2.6,-14.72 7.82,-20.18 5.22,-5.46 12.25,-8.56 19.8,-8.74 0.22,-0 0.43,-0.01 0.65,-0.01 15.29,0 27.91,12.26 28.26,27.63 0.17,7.55 -2.61,14.71 -7.82,20.18 -5.22,5.46 -12.25,8.56 -19.8,8.74zm-21.25 -106.92l0 0c-0.85,-3.31 -0.36,-6.03 1.55,-8.55 6.59,-8.74 27.62,-12.13 39.56,-13.07l-13.18 64.98c-2.63,-0.54 -5.35,-0.81 -8.14,-0.75 -2.93,0.07 -5.8,0.49 -8.56,1.22l-11.21 -43.84zm-49.58 37.6l0 0c-2.94,-1.74 -4.51,-4.01 -4.95,-7.14 -1.52,-10.85 10.96,-28.11 18.73,-37.21l36.62 55.27c-2.26,1.49 -4.37,3.23 -6.28,5.23 -2.03,2.12 -3.76,4.44 -5.19,6.92l-38.93 -23.07zm-8.47 61.65l0 0c-3.31,0.84 -6.03,0.36 -8.55,-1.55 -8.74,-6.59 -12.13,-27.62 -13.07,-39.56l64.98 13.18c-0.54,2.65 -0.8,5.37 -0.74,8.14 0.07,2.96 0.5,5.82 1.23,8.56l-43.86 11.22zm37.6 49.58l0 0c-1.74,2.94 -4.01,4.51 -7.14,4.95 -10.86,1.54 -28.11,-10.96 -37.21,-18.73l55.28 -36.63c3.1,4.7 7.27,8.64 12.15,11.46l-23.09 38.96zm61.65 8.47l0 0c0.84,3.31 0.36,6.03 -1.55,8.55 -6.59,8.74 -27.62,12.13 -39.56,13.07l13.18 -64.98c2.36,0.49 4.81,0.75 7.31,0.75 0.28,0 0.55,-0 0.83,-0.01 2.93,-0.07 5.8,-0.49 8.56,-1.22l11.22 43.84zm49.58 -37.6l0 0c2.94,1.74 4.51,4.01 4.95,7.14 1.52,10.85 -10.96,28.11 -18.73,37.21l-36.62 -55.26c2.26,-1.49 4.37,-3.23 6.28,-5.24 2.02,-2.12 3.76,-4.44 5.19,-6.92l38.94 23.07zm-34.89 -33.73l0 0c0.54,-2.65 0.8,-5.37 0.74,-8.14 -0.07,-2.96 -0.5,-5.82 -1.24,-8.56l43.86 -11.22c3.31,-0.85 6.03,-0.36 8.55,1.55 8.74,6.59 12.13,27.62 13.07,39.56l-64.98 -13.18z"/>
 </g>
</svg>
