<?xml version="1.0" encoding="UTF-8"?>
<!DOCTYPE svg PUBLIC "-//W3C//DTD SVG 1.1//EN" "http://www.w3.org/Graphics/SVG/1.1/DTD/svg11.dtd">
<!-- Creator: CorelDRAW 2018 (64 Bit) -->
<svg xmlns="http://www.w3.org/2000/svg" xml:space="preserve" width="9.988mm" height="11.2015mm" version="1.1" style="shape-rendering:geometricPrecision; text-rendering:geometricPrecision; image-rendering:optimizeQuality; fill-rule:evenodd; clip-rule:evenodd"
viewBox="0 0 376.27 421.99"
 xmlns:xlink="http://www.w3.org/1999/xlink">
 <defs>
  <style type="text/css">
   <![CDATA[
    .fil1 {fill:none}
    .fil0 {fill:black;fill-rule:nonzero}
   ]]>
  </style>
 </defs>
 <g id="Ebene_x0020_1">
  <metadata id="CorelCorpID_0Corel-Layer"/>
  <path class="fil0" d="M247.69 241.91c-39.7,0 -79.39,0 -119.09,0 -7.03,0 -7.01,-10.91 0,-10.91 39.7,0 79.39,0 119.09,0 7.03,0 7.03,10.91 0,10.91zm0 -20c-39.7,0 -79.39,0 -119.09,0 -7.03,0 -7.01,-10.91 0,-10.91 39.7,0 79.39,0 119.09,0 7.03,0 7.03,10.91 0,10.91zm0 -20c-39.7,0 -79.39,0 -119.09,0 -7.03,0 -7.01,-10.91 0,-10.91 39.7,0 79.39,0 119.09,0 7.03,0 7.03,10.91 0,10.91zm-119.09 -30.91c39.7,0 79.39,0 119.09,0 7.03,0 7.03,10.92 0,10.92 -39.7,0 -79.39,0 -119.09,0 -7.03,0 -7.01,-10.92 0,-10.92zm182.96 77.08c0,0.64 -0.46,1.19 -1.08,1.32l-15.95 3.11 0 -92.27 15.95 3.12c0.63,0.12 1.08,0.68 1.08,1.33l0 83.4zm-27.96 17.17c0,0.1 -0.07,0.17 -0.17,0.17l-10.74 -0.17 0.17 -117.92 10.74 0.17 0 117.75zm-21.82 -14.55l-147.27 0 0 -88.64 147.27 0 0 88.64zm-19.54 45.09l-21.37 0 0 -14.88c0,-5.71 -4.64,-10.34 -10.34,-10.34l-44.78 0c-5.7,0 -10.33,4.64 -10.33,10.34l0 14.88 -21.36 0 0 -34.18 108.18 0 0 34.18zm-39.54 -162.97l0 18.34 -22.28 0 0 -18.34 22.28 0zm-33.65 -10.89l0 -5.93 45 0 0 5.93 -45 0zm-65.46 29.23l0 111.5 -25.55 -5.68c-0.2,-0.04 -0.36,-0.23 -0.36,-0.43l0 -100.32c0,-0.2 0.15,-0.38 0.36,-0.43l25.55 -5.68 0 1.05zm208.96 1.49l-18.03 -3.52 0 -1.63c0,-6.11 -4.97,-11.08 -11.08,-11.08l-10.57 0c-6.11,0 -11.08,4.97 -11.08,11.08l0 3.66 -48.19 0 0 -18.34 2.52 0c4.89,0 8.86,-3.97 8.86,-8.87l0 -10c0,-4.88 -3.98,-8.86 -8.86,-8.86l-49.1 0c-4.89,0 -8.87,3.97 -8.87,8.86l0 10c0,4.9 3.98,8.87 8.87,8.87l2.51 0 0 18.34 -55 0 0 -4.25c0,-2.55 -1.15,-4.92 -3.13,-6.51 -1.99,-1.59 -4.54,-2.19 -7.03,-1.64l-28.7 6.38c-5.23,1.16 -8.88,5.71 -8.88,11.08l0 100.32c0,5.36 3.65,9.92 8.88,11.08l28.7 6.37c0.6,0.14 1.21,0.21 1.81,0.21 1.87,0 3.7,-0.64 5.21,-1.84 1.98,-1.6 3.13,-3.97 3.13,-6.51l0 -4.24 8.63 0 0 34.75c0,5.7 4.64,10.34 10.34,10.34l22.5 0c5.7,0 10.34,-4.64 10.34,-10.34l0 -14.89 43.64 0 0 14.89c0,5.7 4.63,10.34 10.34,10.34l22.51 0c5.71,0 10.34,-4.64 10.34,-10.34l0 -34.75 8.63 0 0 3.65c0,6.12 4.97,11.08 11.08,11.08l10.57 0c6.11,0 11.08,-4.97 11.08,-11.08l0 -1.62 18.03 -3.52c5.76,-1.12 9.92,-6.17 9.92,-12.03l0 -83.4c0,-5.85 -4.16,-10.92 -9.92,-12.03z"/>
 </g>
 <g id="Ebene_x0020_1_0">
  <metadata id="CorelCorpID_1Corel-Layer"/>
  <rect class="fil1" y="0" width="376.27" height="421.99"/>
 </g>
</svg>
